<?xml version="1.0" standalone="no"?>
<!DOCTYPE svg PUBLIC "-//W3C//DTD SVG 20010904//EN"
 "http://www.w3.org/TR/2001/REC-SVG-20010904/DTD/svg10.dtd">
<svg version="1.0" xmlns="http://www.w3.org/2000/svg"
 width="1024.000000pt" height="1024.000000pt" viewBox="0 0 1024.000000 1024.000000"
 preserveAspectRatio="xMidYMid meet">
<metadata>
Created by potrace 1.14, written by Peter Selinger 2001-2017
</metadata>
<g transform="translate(0.000000,1024.000000) scale(0.100000,-0.100000)"
fill="#000000" stroke="none">
<path d="M5356 8475 c-4 -20 -4 -39 -1 -44 3 -6 1 -12 -5 -16 -5 -3 -10 -17
-10 -31 0 -14 4 -23 9 -20 5 3 7 16 4 29 -3 15 -2 18 5 9 6 -9 9 4 11 39 1 28
4 56 7 60 3 5 1 9 -4 9 -6 0 -13 -16 -16 -35z"/>
<path d="M5382 8440 c0 -14 2 -19 5 -12 2 6 2 18 0 25 -3 6 -5 1 -5 -13z"/>
<path d="M5871 8379 c-36 -15 -102 -70 -95 -80 3 -5 2 -8 -3 -7 -4 2 -18 -4
-30 -13 -21 -14 -21 -17 -7 -37 8 -12 20 -20 25 -16 5 3 8 0 7 -6 -5 -20 30
-19 48 1 20 22 59 26 51 6 -4 -10 7 -14 39 -16 36 -2 44 1 46 16 14 149 15
147 -32 157 -14 3 -36 1 -49 -5z"/>
<path d="M5371 8344 c0 -11 3 -14 6 -6 3 7 2 16 -1 19 -3 4 -6 -2 -5 -13z"/>
<path d="M5332 8320 c0 -14 2 -19 5 -12 2 6 2 18 0 25 -3 6 -5 1 -5 -13z"/>
<path d="M5301 8264 c0 -11 3 -14 6 -6 3 7 2 16 -1 19 -3 4 -6 -2 -5 -13z"/>
<path d="M3294 8238 c-5 -7 -3 -8 6 -3 10 6 12 4 7 -7 -8 -22 2 -29 25 -17 15
8 17 13 7 25 -14 17 -35 18 -45 2z"/>
<path d="M5676 8218 c-29 -37 -25 -52 13 -43 37 9 53 32 38 56 -16 26 -21 24
-51 -13z m48 4 c2 -4 -5 -9 -17 -9 -17 -2 -19 0 -7 7 18 12 18 12 24 2z"/>
<path d="M3475 8220 c-4 -6 -3 -10 2 -9 20 3 23 -2 12 -23 -11 -21 -12 -21
-25 -3 -8 10 -14 15 -14 9 0 -5 -5 -2 -11 6 -9 12 -10 12 -5 -3 8 -26 -2 -41
-19 -27 -19 16 -73 21 -81 8 -4 -5 -1 -14 6 -18 6 -4 11 -10 11 -14 -3 -20 0
-26 11 -20 7 4 8 3 4 -4 -4 -7 5 -24 21 -39 15 -14 21 -23 13 -18 -10 5 -8 1
4 -13 21 -25 36 -31 16 -7 -21 25 -5 18 73 -35 42 -28 92 -57 112 -66 34 -14
37 -14 32 0 -4 9 -2 15 2 13 15 -4 62 57 57 76 -2 9 1 17 6 17 6 0 5 6 -2 15
-11 14 -10 14 14 5 21 -8 25 -7 19 3 -14 22 -10 55 7 50 8 -2 -2 5 -23 17 -21
11 -43 18 -49 14 -6 -4 -8 -3 -5 4 4 6 -12 17 -40 26 -56 19 -56 19 -48 4 4
-7 1 -6 -7 3 -7 9 -23 15 -35 14 -12 -1 -24 4 -27 12 -6 16 -22 17 -31 3z
m-38 -58 c9 7 13 7 13 -1 0 -6 -5 -11 -10 -11 -6 0 -5 -8 2 -20 7 -11 19 -20
26 -20 7 0 11 -4 8 -9 -8 -12 29 -43 39 -34 4 5 5 2 1 -4 -4 -7 -4 -13 1 -13
4 -1 28 -19 53 -42 35 -31 37 -35 11 -18 -39 27 -217 199 -182 176 18 -11 28
-13 38 -4z"/>
<path d="M5829 8213 c-13 -16 -12 -17 4 -4 9 7 17 15 17 17 0 8 -8 3 -21 -13z"/>
<path d="M6839 8203 c-13 -16 -12 -17 4 -4 9 7 17 15 17 17 0 8 -8 3 -21 -13z"/>
<path d="M5632 8157 c-8 -10 -6 -13 9 -14 19 -2 26 11 10 21 -5 3 -14 0 -19
-7z"/>
<path d="M6825 8120 c3 -5 8 -10 11 -10 2 0 4 5 4 10 0 6 -5 10 -11 10 -5 0
-7 -4 -4 -10z"/>
<path d="M3735 8100 c-8 -13 -1 -24 14 -19 6 3 7 10 2 18 -6 10 -10 10 -16 1z"/>
<path d="M5260 8066 c0 -2 8 -10 18 -17 15 -13 16 -12 3 4 -13 16 -21 21 -21
13z"/>
<path d="M5521 7974 c0 -11 3 -14 6 -6 3 7 2 16 -1 19 -3 4 -6 -2 -5 -13z"/>
<path d="M5505 7910 c3 -5 8 -10 11 -10 2 0 4 5 4 10 0 6 -5 10 -11 10 -5 0
-7 -4 -4 -10z"/>
<path d="M5493 7832 c-1 -37 -1 -37 8 -7 4 16 5 33 1 37 -4 4 -8 -10 -9 -30z"/>
<path d="M6685 7770 c-17 -18 -48 -120 -40 -129 3 -2 5 1 5 7 0 6 11 9 25 6
29 -5 40 12 50 77 8 53 -11 71 -40 39z"/>
<path d="M5906 7729 c-14 -11 -24 -25 -21 -30 4 -5 0 -7 -7 -4 -7 2 -42 -24
-78 -58 -36 -34 -56 -54 -45 -44 25 20 40 23 28 5 -4 -7 18 8 48 35 56 47 76
58 64 35 -4 -7 8 3 26 21 19 21 27 37 21 39 -7 2 -10 8 -6 13 9 14 -1 11 -30
-12z m24 -23 c0 -2 -8 -10 -17 -17 -16 -13 -17 -12 -4 4 13 16 21 21 21 13z
m-80 -39 c0 -2 -15 -16 -32 -33 l-33 -29 29 33 c28 30 36 37 36 29z"/>
<path d="M7488 7645 c-12 -24 -26 -41 -31 -38 -6 3 -7 1 -4 -4 6 -9 -35 -106
-96 -231 -13 -27 -1 -54 25 -58 14 -2 15 2 7 24 -10 26 0 41 27 42 7 0 27 24
45 53 18 28 38 55 44 59 5 4 6 8 1 8 -5 0 -2 7 5 16 14 18 20 154 6 154 -5 0
-5 5 -2 10 3 6 4 10 0 10 -3 0 -15 -20 -27 -45z"/>
<path d="M3551 7657 c18 -35 51 -67 62 -60 6 4 7 1 3 -6 -5 -8 13 -33 49 -69
l56 -56 24 29 c14 18 22 39 20 53 -6 34 4 27 24 -18 10 -22 20 -38 22 -36 2 2
5 -9 6 -25 2 -28 -11 -41 -19 -17 -7 19 -27 -1 -23 -22 4 -20 43 -80 60 -92 6
-4 21 -8 33 -8 22 0 23 3 17 43 -11 69 -46 190 -62 214 -8 13 -32 26 -56 31
-23 5 -84 21 -134 35 l-93 26 11 -22z"/>
<path d="M7383 7659 c-2 -23 3 -25 10 -4 4 8 3 16 -1 19 -4 3 -9 -4 -9 -15z"/>
<path d="M7340 7657 c0 -9 -6 -17 -14 -17 -7 0 -21 -12 -31 -26 -9 -15 -12
-23 -6 -19 7 4 10 1 9 -7 -2 -7 3 -12 10 -10 8 1 11 -2 8 -7 -3 -5 1 -14 9
-21 8 -7 15 -9 15 -5 0 5 9 0 20 -10 11 -10 20 -13 20 -7 0 14 -35 34 -44 25
-3 -3 -6 -1 -6 5 0 6 4 13 9 16 20 13 29 62 15 81 -12 17 -14 17 -14 2z"/>
<path d="M3282 7628 c2 -7 -2 -12 -8 -11 -7 1 2 -23 19 -54 17 -31 47 -107 68
-167 47 -139 88 -244 89 -231 0 6 9 -1 20 -14 14 -16 18 -31 14 -50 -3 -15 -2
-21 3 -14 17 23 80 -83 119 -200 36 -110 54 -148 54 -114 0 9 6 17 13 17 12 0
37 -83 37 -125 0 -11 8 -29 16 -40 14 -18 15 -11 12 95 l-3 115 -43 62 c-23
35 -51 67 -62 73 -12 6 -18 15 -16 19 3 4 -20 29 -50 56 -31 26 -51 51 -46 54
6 3 20 29 31 58 l20 52 -25 38 c-26 38 -62 72 -77 73 -4 0 -11 -10 -16 -22 -7
-20 -9 -18 -15 17 -3 22 -9 63 -12 90 -3 28 -7 59 -8 70 -3 26 -24 65 -35 65
-14 0 -91 72 -86 80 3 5 1 12 -5 15 -6 4 -9 1 -8 -7z"/>
<path d="M3335 7590 c10 -11 20 -20 23 -20 3 0 -3 9 -13 20 -10 11 -20 20 -23
20 -3 0 3 -9 13 -20z"/>
<path d="M7228 7578 c-37 -49 -80 -138 -74 -154 3 -8 15 -14 26 -14 23 0 23 0
10 -35 -8 -20 -7 -27 5 -31 8 -4 15 -12 15 -20 0 -8 5 -14 10 -14 6 0 10 7 10
15 0 8 -4 15 -8 15 -18 0 -6 60 16 80 12 11 22 27 22 35 0 8 5 15 10 15 7 0 7
-6 1 -18 -7 -14 -6 -19 4 -19 8 0 14 3 13 6 -2 20 4 31 17 31 20 0 61 37 52
47 -4 3 -7 2 -7 -4 0 -6 -7 -14 -16 -17 -12 -4 -15 -2 -11 9 4 8 2 17 -4 20
-5 4 -7 10 -4 15 3 5 -10 20 -30 33 -19 13 -32 27 -28 30 3 4 4 7 1 7 -3 0
-17 -15 -30 -32z m83 -76 c-11 -20 -41 -24 -41 -7 0 13 14 22 37 22 8 0 9 -6
4 -15z"/>
<path d="M7431 7573 c-5 -10 -12 -17 -15 -15 -18 7 -28 1 -17 -12 9 -10 9 -20
0 -40 -7 -14 -15 -26 -19 -26 -4 0 -7 -7 -7 -15 0 -8 2 -15 4 -15 1 0 19 32
38 70 19 39 33 70 31 70 -3 0 -9 -8 -15 -17z"/>
<path d="M5441 7564 c0 -11 3 -14 6 -6 3 7 2 16 -1 19 -3 4 -6 -2 -5 -13z"/>
<path d="M5416 7488 c-23 -75 -67 -190 -72 -185 -3 2 4 28 16 56 11 28 20 57
20 64 0 17 -92 -205 -93 -225 -1 -9 -3 -15 -6 -13 -8 8 -32 -35 -26 -45 4 -6
1 -9 -7 -8 -7 2 -13 -5 -13 -14 0 -10 -6 -23 -12 -29 -16 -16 -53 -22 -53 -8
0 5 -5 7 -11 3 -8 -4 -9 1 -5 17 6 20 5 21 -4 6 -12 -19 5 -133 21 -143 5 -3
9 -1 9 5 0 17 147 205 179 229 18 13 29 27 26 33 -4 5 -2 8 3 7 11 -4 65 52
68 69 1 7 -25 -10 -59 -37 -61 -49 -92 -65 -66 -34 16 19 29 53 75 193 19 57
32 106 30 109 -3 2 -12 -20 -20 -50z m-249 -460 c-3 -8 -6 -5 -6 6 -1 11 2 17
5 13 3 -3 4 -12 1 -19z"/>
<path d="M3607 7481 c6 -7 9 -20 6 -27 -3 -8 0 -14 7 -14 8 0 11 -11 8 -30 -3
-17 -2 -33 2 -35 3 -2 7 6 7 17 1 12 7 26 13 32 8 8 9 7 5 -5 -4 -10 -2 -20 4
-23 26 -16 3 38 -29 67 -19 17 -30 26 -23 18z m34 -38 c13 -16 12 -17 -3 -4
-10 7 -18 15 -18 17 0 8 8 3 21 -13z"/>
<path d="M3684 7393 c4 -7 2 -13 -3 -13 -24 0 -4 -26 28 -38 19 -6 35 -11 37
-10 1 2 -14 19 -33 38 -20 19 -33 29 -29 23z"/>
<path d="M5630 7390 c-9 -6 -10 -10 -3 -10 6 0 15 5 18 10 8 12 4 12 -15 0z"/>
<path d="M6605 7351 c-10 -61 3 -137 38 -215 l31 -69 29 33 c18 20 27 39 24
51 -3 11 -1 19 3 19 10 0 16 18 26 73 l6 37 -39 0 c-45 0 -67 18 -94 77 l-17
36 -7 -42z"/>
<path d="M4720 7375 c0 -5 5 -17 10 -25 5 -8 10 -10 10 -5 0 6 -5 17 -10 25
-5 8 -10 11 -10 5z"/>
<path d="M7145 7370 c-3 -5 -2 -10 4 -10 5 0 13 5 16 10 3 6 2 10 -4 10 -5 0
-13 -4 -16 -10z"/>
<path d="M4665 7340 c10 -11 20 -20 23 -20 3 0 -3 9 -13 20 -10 11 -20 20 -23
20 -3 0 3 -9 13 -20z"/>
<path d="M7153 7305 c-3 -39 22 -68 38 -44 15 23 10 34 -6 13 -13 -17 -14 -17
-15 -2 0 9 5 20 10 23 16 10 12 32 -7 37 -14 4 -19 -2 -20 -27z"/>
<path d="M7131 7314 c0 -11 3 -14 6 -6 3 7 2 16 -1 19 -3 4 -6 -2 -5 -13z"/>
<path d="M5123 7285 c0 -22 2 -30 4 -17 2 12 2 30 0 40 -3 9 -5 -1 -4 -23z"/>
<path d="M1930 7300 c8 -5 10 -10 4 -10 -6 0 -10 -21 -9 -53 2 -64 13 -99 27
-91 7 5 8 2 4 -5 -9 -14 13 -73 24 -66 9 5 32 -43 26 -54 -3 -4 3 -20 14 -36
l18 -28 7 55 c5 37 3 63 -5 79 -10 17 -10 24 -1 27 6 2 8 9 5 14 -4 7 -2 8 5
4 6 -4 9 -12 6 -17 -4 -5 -2 -9 2 -9 13 0 33 22 33 37 0 16 -147 163 -163 163
-7 0 -6 -4 3 -10z"/>
<path d="M4735 7252 c33 -34 61 -62 63 -62 8 0 -37 49 -78 85 -36 31 -33 26
15 -23z"/>
<path d="M5446 7246 c-48 -73 -58 -102 -15 -46 50 65 71 100 60 100 -5 0 -25
-24 -45 -54z"/>
<path d="M2766 7192 c-15 -37 -28 -78 -30 -92 -1 -14 -6 -32 -10 -39 -4 -7 -6
-13 -5 -14 2 -1 19 -10 37 -19 17 -9 32 -13 32 -8 0 6 8 10 18 10 11 0 27 9
37 20 10 12 24 19 30 16 6 -2 12 5 12 15 1 10 -2 19 -8 19 -5 0 -9 6 -9 14 0
8 -11 17 -25 20 -23 6 -25 10 -19 41 4 26 1 40 -14 59 l-19 25 -27 -67z"/>
<path d="M7124 7230 c2 -18 28 -20 32 -2 1 7 0 8 -3 2 -7 -14 -21 -13 -26 3
-2 7 -3 6 -3 -3z"/>
<path d="M2275 7222 c11 -9 31 -30 45 -45 20 -23 21 -27 6 -21 -14 5 -17 4
-12 -4 4 -7 16 -12 27 -12 10 0 19 -4 19 -9 0 -5 15 -29 34 -54 35 -46 74
-106 64 -97 -4 3 -29 35 -56 72 l-49 67 -42 -30 c-22 -17 -41 -36 -41 -42 0
-6 -32 20 -71 58 l-71 70 4 -77 c2 -42 0 -71 -4 -65 -4 6 -7 -4 -6 -23 0 -19
-2 -75 -6 -125 -4 -59 -3 -83 3 -70 7 15 10 16 10 4 1 -8 10 -25 22 -38 11
-12 18 -29 15 -37 -4 -11 -2 -12 13 -4 11 5 23 24 27 42 7 31 8 32 13 9 8 -30
28 -39 33 -14 3 13 5 11 10 -9 3 -15 1 -25 -3 -22 -5 3 -9 1 -9 -5 0 -24 19
-18 29 10 9 26 13 29 30 20 10 -6 22 -16 24 -23 4 -8 6 -7 6 4 1 9 -7 22 -16
27 -10 6 -13 11 -6 11 7 0 28 -14 48 -31 30 -27 33 -34 23 -47 -10 -12 -10
-14 0 -8 21 12 13 -5 -10 -24 l-23 -18 38 -7 c20 -4 48 -5 62 -3 15 3 22 1 18
-5 -4 -7 1 -8 13 -2 10 4 29 10 41 12 l22 5 -26 39 c-14 21 -28 37 -32 35 -4
-3 -7 3 -8 13 -1 10 5 18 12 18 8 0 12 -4 10 -8 -3 -4 4 -18 16 -30 l20 -24
-16 26 c-13 22 -13 28 -2 38 8 6 17 8 20 4 4 -3 7 -1 7 5 0 23 29 0 33 -26 6
-40 -3 86 -10 138 -5 36 -8 41 -14 25 -7 -14 -7 -11 -3 12 6 34 -17 122 -40
159 -16 23 -116 89 -116 76 0 -4 -5 0 -10 10 -12 20 -96 68 -119 68 -13 0 -13
-3 4 -18z m53 -237 c4 0 6 -4 4 -9 -5 -15 19 -35 38 -31 11 2 19 -1 17 -7 -1
-6 9 -17 23 -25 22 -11 20 -18 -3 -14 -5 1 -7 -4 -4 -11 2 -7 9 -12 15 -11 6
2 9 -3 6 -10 -2 -7 6 -27 19 -44 l23 -32 36 29 35 29 11 -24 c14 -31 1 -40
-75 -47 -7 -1 -11 -4 -10 -7 2 -7 -51 -61 -60 -61 -4 0 -3 3 0 7 4 3 -1 16
-10 27 -18 21 -18 21 3 3 26 -21 40 -10 18 14 -15 17 -15 18 5 14 11 -2 23 0
26 5 9 14 -45 101 -57 93 -7 -4 -8 -1 -3 6 4 8 -6 27 -26 49 -19 21 -48 53
-64 72 l-30 35 28 -25 c16 -14 32 -25 35 -25z m152 -35 c6 -11 8 -20 6 -20 -3
0 -10 9 -16 20 -6 11 -8 20 -6 20 3 0 10 -9 16 -20z m50 -85 c0 -11 -14 7 -31
40 -7 13 -3 12 10 -5 11 -14 21 -29 21 -35z m37 -7 c-3 -8 -6 -5 -6 6 -1 11 2
17 5 13 3 -3 4 -12 1 -19z"/>
<path d="M2375 6920 c10 -11 20 -20 23 -20 3 0 -3 9 -13 20 -10 11 -20 20 -23
20 -3 0 3 -9 13 -20z"/>
<path d="M2515 6800 c-3 -5 -2 -10 4 -10 5 0 13 5 16 10 3 6 2 10 -4 10 -5 0
-13 -4 -16 -10z"/>
<path d="M3915 7157 c-4 -20 -5 -46 -2 -57 3 -11 1 -18 -3 -15 -11 7 -24 -110
-14 -126 4 -8 3 -9 -4 -5 -19 12 -14 -30 5 -45 12 -10 15 -10 9 -1 -5 8 3 18
23 29 16 10 33 27 36 38 6 22 4 26 44 -72 13 -32 31 -36 31 -7 0 8 -4 12 -10
9 -5 -3 -7 0 -4 8 5 15 -31 122 -75 220 l-29 62 -7 -38z"/>
<path d="M5096 7144 c-4 -20 -5 -38 -3 -40 3 -3 8 11 11 32 4 20 5 38 3 40 -3
3 -8 -11 -11 -32z"/>
<path d="M5141 7144 c0 -11 3 -14 6 -6 3 7 2 16 -1 19 -3 4 -6 -2 -5 -13z"/>
<path d="M6909 7133 l-24 -28 28 24 c15 14 27 26 27 28 0 8 -8 1 -31 -24z"/>
<path d="M2215 7102 c21 -23 40 -42 41 -42 1 0 18 13 38 29 29 23 33 31 22 40
-11 9 -15 8 -20 -4 -3 -9 -10 -14 -15 -10 -6 3 -8 -4 -6 -15 2 -11 0 -20 -6
-20 -5 0 -9 7 -9 15 0 8 -4 15 -10 15 -5 0 -6 -8 -3 -17 6 -16 5 -16 -10 -4
-13 10 -14 17 -7 26 7 9 7 15 1 19 -5 4 -13 2 -16 -4 -5 -8 -12 -7 -23 2 -10
6 1 -7 23 -30z m95 14 c0 -2 -8 -10 -17 -17 -16 -13 -17 -12 -4 4 13 16 21 21
21 13z"/>
<path d="M5209 7093 c-13 -16 -12 -17 4 -4 9 7 17 15 17 17 0 8 -8 3 -21 -13z"/>
<path d="M6740 7071 c0 -11 4 -22 9 -25 4 -3 6 6 3 19 -5 30 -12 33 -12 6z"/>
<path d="M6201 7061 c-11 -11 -18 -27 -15 -36 4 -9 0 -15 -10 -15 -25 0 -63
-173 -51 -240 4 -26 3 -31 -4 -20 -9 13 -11 12 -11 -5 0 -14 7 -21 18 -21 14
0 23 15 36 61 9 33 25 84 35 113 10 29 15 55 10 58 -13 8 -11 34 3 32 17 -4
35 69 21 83 -8 8 -17 5 -32 -10z"/>
<path d="M3472 7035 c0 -16 2 -22 5 -12 2 9 2 23 0 30 -3 6 -5 -1 -5 -18z"/>
<path d="M4140 7035 c13 -14 26 -25 28 -25 3 0 -5 11 -18 25 -13 14 -26 25
-28 25 -3 0 5 -11 18 -25z"/>
<path d="M6587 6980 c-37 -38 -73 -82 -80 -97 -22 -43 -37 -127 -37 -209 l0
-75 40 23 c43 24 46 32 84 178 10 41 11 59 2 69 -8 11 -8 13 0 8 8 -4 16 15
24 56 6 34 18 74 25 90 7 15 12 27 10 27 -1 0 -32 -31 -68 -70z"/>
<path d="M2730 7016 c0 -10 -4 -14 -10 -11 -16 10 -11 -28 7 -54 9 -14 11 -21
5 -17 -7 4 -12 3 -12 -3 0 -5 9 -9 20 -8 20 1 24 26 6 39 -13 9 13 40 26 32 6
-4 6 -10 0 -16 -12 -12 -5 -38 9 -38 5 0 9 7 9 15 0 8 5 15 11 15 13 0 -7 20
-43 44 -26 17 -28 17 -28 2z"/>
<path d="M6009 6993 l-24 -28 28 24 c15 14 27 26 27 28 0 8 -8 1 -31 -24z"/>
<path d="M3462 6975 c0 -16 2 -22 5 -12 2 9 2 23 0 30 -3 6 -5 -1 -5 -18z"/>
<path d="M5851 6919 c-19 -16 -36 -36 -37 -45 -1 -9 1 -13 4 -9 4 4 7 12 7 18
0 7 8 12 17 12 21 0 52 29 47 43 -2 6 -19 -3 -38 -19z"/>
<path d="M3452 6915 c0 -16 2 -22 5 -12 2 9 2 23 0 30 -3 6 -5 -1 -5 -18z"/>
<path d="M5939 6913 c-13 -16 -12 -17 4 -4 9 7 17 15 17 17 0 8 -8 3 -21 -13z"/>
<path d="M6774 6893 c-10 -23 -11 -162 -1 -156 4 2 7 -12 7 -31 0 -34 2 -36
33 -36 59 0 75 9 82 47 8 43 -5 55 -52 50 -17 -1 -31 0 -30 3 4 16 -16 100
-22 95 -5 -2 -6 7 -3 20 5 29 -2 33 -14 8z"/>
<path d="M3442 6850 c0 -14 2 -19 5 -12 2 6 2 18 0 25 -3 6 -5 1 -5 -13z"/>
<path d="M3431 6804 c0 -11 3 -14 6 -6 3 7 2 16 -1 19 -3 4 -6 -2 -5 -13z"/>
<path d="M2100 6776 c0 -2 8 -10 18 -17 15 -13 16 -12 3 4 -13 16 -21 21 -21
13z"/>
<path d="M3335 6729 c-4 -22 -3 -44 1 -49 5 -4 43 -10 84 -12 41 -3 66 -3 55
-1 -26 6 -45 31 -45 60 0 25 -26 43 -63 43 -22 0 -26 -6 -32 -41z"/>
<path d="M2530 6756 c0 -2 8 -10 18 -17 15 -13 16 -12 3 4 -13 16 -21 21 -21
13z"/>
<path d="M1764 6685 c2 -11 10 -45 16 -75 24 -105 139 -393 172 -427 17 -18
36 -29 41 -26 6 3 7 1 3 -5 -3 -6 9 -26 27 -46 19 -20 32 -37 31 -39 -2 -2 2
-4 8 -5 7 0 38 -4 68 -8 42 -5 64 -2 95 11 41 19 52 21 119 23 38 2 39 3 20
18 -10 8 -13 13 -6 9 6 -3 12 -1 12 5 0 6 -16 9 -42 7 -56 -5 -207 11 -227 24
-13 8 -12 9 4 5 41 -10 154 -18 285 -20 125 -2 137 -1 165 19 17 12 38 25 48
28 28 10 12 24 -51 42 -89 26 -231 78 -228 84 2 3 -11 13 -30 22 -18 9 -31 11
-27 5 3 -6 -5 -1 -19 12 -18 16 -32 21 -50 17 -13 -3 -56 1 -94 11 -61 15
-101 22 -142 26 -8 1 -5 10 9 24 18 19 20 26 9 39 -8 9 -8 15 -2 15 6 0 14 -5
17 -11 9 -14 30 -6 30 12 0 8 8 13 18 11 10 -2 17 3 17 13 0 9 5 13 11 9 8 -5
8 -1 0 14 -16 29 -61 63 -75 55 -7 -4 -7 -2 1 8 10 13 7 15 -20 13 -47 -4 -64
4 -71 31 -4 14 -13 25 -22 25 -9 0 -12 -5 -8 -12 5 -7 3 -8 -7 -2 -19 11 -39
14 -39 5 0 -4 32 -43 71 -87 46 -52 34 -41 -36 31 -58 61 -104 101 -101 90z
m277 -132 c13 -16 12 -17 -3 -4 -10 7 -18 15 -18 17 0 8 8 3 21 -13z m-154
-138 c0 -8 -6 -15 -14 -15 -7 0 -13 7 -13 15 0 8 6 15 13 15 8 0 14 -7 14 -15z
m133 -60 c0 -1 -8 -5 -18 -7 -11 -3 -19 0 -19 7 0 7 8 10 19 7 10 -2 18 -6 18
-7z m207 -1 c-3 -3 -12 -4 -19 -1 -8 3 -5 6 6 6 11 1 17 -2 13 -5z"/>
<path d="M3252 6623 c8 -10 36 -58 63 -108 70 -132 71 -134 73 -77 0 26 5 60
11 75 6 15 8 33 5 40 -5 14 -139 87 -158 87 -5 0 -2 -8 6 -17z m123 -59 c23
-19 24 -22 5 -10 -14 8 -29 15 -35 15 -5 0 -11 4 -13 10 -6 18 11 12 43 -15z"/>
<path d="M8391 6633 c-1 -6 -20 -31 -43 -55 -23 -24 -41 -47 -40 -52 2 -5 -4
-6 -12 -3 -16 6 -56 -32 -56 -54 0 -8 6 -21 13 -28 10 -11 9 -12 -3 -6 -13 8
-13 6 -1 -8 7 -9 17 -15 20 -12 4 2 8 -1 8 -8 0 -7 4 -20 8 -30 6 -15 4 -16
-20 -7 -15 6 -31 8 -34 4 -3 -4 -1 -9 5 -11 7 -2 10 -12 7 -21 -2 -9 3 -45 10
-79 8 -34 12 -65 8 -69 -3 -4 -1 -4 6 0 7 4 9 14 6 23 -4 10 -2 14 4 10 13 -8
57 108 47 125 -5 7 -3 8 6 3 9 -6 10 -2 5 15 -5 14 -3 20 3 16 6 -3 11 12 14
39 2 31 -1 45 -9 45 -7 0 -12 -5 -10 -11 1 -6 -4 -13 -11 -14 -7 -2 -9 -1 -4
1 5 2 6 18 4 34 -3 24 0 30 13 30 10 0 24 8 32 18 10 12 10 8 -2 -15 -8 -18
-11 -33 -6 -33 5 0 16 20 24 45 9 26 12 45 6 45 -5 0 -4 6 3 14 7 8 18 11 23
8 6 -3 5 1 -1 9 -6 8 -14 21 -17 29 -3 8 -6 10 -6 3z"/>
<path d="M4991 6614 c0 -11 3 -14 6 -6 3 7 2 16 -1 19 -3 4 -6 -2 -5 -13z"/>
<path d="M2597 6585 c9 -19 18 -33 21 -31 4 5 -26 66 -33 66 -3 0 3 -16 12
-35z"/>
<path d="M5019 6598 c-7 -32 -7 -48 3 -54 7 -4 8 -3 4 5 -4 6 -3 18 4 26 7 9
8 15 0 20 -5 3 -10 5 -11 3z"/>
<path d="M3250 6441 c13 -9 13 -13 1 -33 -10 -16 -10 -23 -2 -26 6 -2 8 -9 4
-15 -4 -7 0 -8 12 -4 9 4 24 2 31 -4 11 -9 14 -7 14 9 0 12 -4 24 -10 27 -5 3
-10 1 -10 -6 0 -22 -18 4 -22 30 -1 14 -10 26 -18 28 -13 4 -13 3 0 -6z"/>
<path d="M8230 6416 c0 -2 8 -10 18 -17 15 -13 16 -12 3 4 -13 16 -21 21 -21
13z"/>
<path d="M8177 6374 c3 -9 -1 -14 -13 -12 -11 0 -30 0 -44 -1 l-25 -3 25 -8
c16 -5 19 -8 8 -9 -10 -1 -22 -11 -29 -22 -6 -12 -7 -19 -1 -15 17 11 0 -36
-21 -57 -20 -20 -20 -20 1 -31 12 -7 48 -9 89 -6 l68 5 -2 45 c-2 31 -8 50
-22 61 -12 10 -19 25 -16 37 2 11 -3 23 -10 26 -9 3 -12 0 -8 -10z m-7 -34 c0
-5 -2 -10 -4 -10 -3 0 -8 5 -11 10 -3 6 -1 10 4 10 6 0 11 -4 11 -10z"/>
<path d="M3770 6310 c-12 -7 -12 -13 -2 -32 15 -28 76 -71 100 -71 9 0 24 -6
33 -14 14 -12 17 -12 22 2 4 8 11 15 17 15 6 0 8 -6 4 -12 -5 -8 -2 -8 10 1
16 14 16 15 -1 32 -22 22 -141 89 -156 89 -7 0 -19 -4 -27 -10z"/>
<path d="M4982 6250 c0 -19 2 -29 5 -22 2 6 9 10 14 6 5 -3 9 0 9 5 0 6 -4 11
-9 11 -5 0 -12 8 -14 18 -3 9 -5 1 -5 -18z"/>
<path d="M3423 6238 c3 -9 1 -18 -6 -21 -8 -2 -5 -24 12 -73 40 -114 88 -219
99 -217 6 2 66 14 133 27 67 14 127 30 132 35 7 7 -19 24 -76 50 -48 22 -87
43 -87 46 0 3 8 2 18 -3 32 -17 111 -52 117 -52 3 0 3 5 -1 12 -4 7 -3 8 5 4
6 -4 9 -11 6 -16 -3 -4 2 -11 11 -14 23 -9 26 -8 18 7 -6 9 -5 9 7 0 17 -14
102 -25 93 -12 -3 5 -20 9 -37 10 -28 1 -29 2 -9 7 48 14 19 31 -57 33 -18 1
-21 3 -10 10 10 6 11 9 2 10 -23 3 -28 4 -40 12 -7 5 -13 5 -13 1 0 -3 -12 1
-26 11 -14 9 -43 22 -64 30 -33 12 -39 11 -44 -1 -8 -21 -16 -17 -66 28 -25
22 -38 37 -30 33 8 -5 25 -17 37 -28 21 -18 50 -16 37 4 -3 5 -10 7 -15 3 -5
-3 -28 9 -52 28 -23 18 -36 25 -28 15 20 -25 5 -21 -37 11 -25 19 -34 22 -29
10z"/>
<path d="M4980 6190 c0 -11 -4 -20 -10 -20 -5 0 -10 -3 -10 -7 0 -5 13 -8 29
-8 20 0 28 4 26 15 -2 8 -4 21 -4 28 -2 21 -31 13 -31 -8z"/>
<path d="M8215 6200 c-18 -8 -17 -9 8 -9 16 -1 26 3 22 9 -3 6 -7 10 -8 9 -1
0 -11 -4 -22 -9z"/>
<path d="M5175 6160 c-3 -5 -1 -10 4 -10 6 0 11 5 11 10 0 6 -2 10 -4 10 -3 0
-8 -4 -11 -10z"/>
<path d="M4994 6131 c3 -5 15 -7 26 -4 28 7 25 13 -6 13 -14 0 -23 -4 -20 -9z"/>
<path d="M5136 6128 c3 -4 11 -5 19 -1 21 7 19 12 -4 10 -11 0 -18 -5 -15 -9z"/>
<path d="M4976 6107 c2 -7 15 -17 29 -23 22 -11 24 -10 21 9 -2 13 -11 21 -29
23 -16 2 -24 -2 -21 -9z"/>
<path d="M2983 6100 c-22 -9 -32 -21 -15 -19 19 3 33 -2 27 -10 -3 -5 -2 -12
3 -15 4 -2 8 9 7 25 0 16 0 29 0 28 0 0 -10 -4 -22 -9z"/>
<path d="M5134 6099 c-2 -4 0 -10 6 -14 6 -4 7 -12 3 -18 -4 -7 0 -6 10 2 9 7
17 19 17 26 0 13 -28 16 -36 4z"/>
<path d="M3022 6074 c2 -30 3 -31 30 -22 15 6 30 14 33 18 6 10 -21 7 -32 -3
-4 -4 -13 3 -20 15 -12 22 -13 22 -11 -8z"/>
<path d="M2267 6066 c-7 -8 -22 -16 -33 -19 -16 -4 -16 -5 4 -6 13 0 20 -5 17
-11 -3 -5 -1 -10 4 -10 10 0 15 13 12 32 0 4 11 5 24 2 30 -5 32 1 6 16 -15 7
-23 6 -34 -4z"/>
<path d="M2338 6073 c6 -2 18 -2 25 0 6 3 1 5 -13 5 -14 0 -19 -2 -12 -5z"/>
<path d="M5223 6050 c-3 -11 -11 -20 -17 -20 -8 0 -11 -26 -9 -87 3 -96 7
-113 23 -113 6 0 8 5 5 10 -3 6 1 13 10 16 12 5 15 21 14 85 -1 43 -5 76 -10
74 -4 -3 -6 8 -4 25 4 34 -4 41 -12 10z"/>
<path d="M1498 6038 c6 -6 18 -8 28 -6 14 3 12 5 -9 10 -19 3 -25 2 -19 -4z"/>
<path d="M1465 6008 c17 -94 23 -121 24 -105 1 9 3 17 6 17 17 0 64 -30 83
-53 22 -25 42 -28 42 -6 0 6 -5 7 -10 4 -6 -4 -9 -1 -8 6 2 7 -4 13 -12 14 -8
0 -15 8 -15 17 0 19 -12 33 -28 33 -7 0 -11 7 -9 16 1 9 -16 33 -39 53 l-40
38 6 -34z"/>
<path d="M3193 6025 c0 -8 4 -12 9 -9 5 3 6 10 3 15 -9 13 -12 11 -12 -6z"/>
<path d="M3108 6013 c7 -3 16 -2 19 1 4 3 -2 6 -13 5 -11 0 -14 -3 -6 -6z"/>
<path d="M3211 6006 c-13 -15 1 -32 18 -22 5 3 14 -1 21 -10 7 -8 19 -13 27
-10 7 3 13 0 13 -6 0 -6 3 -8 7 -5 3 4 12 2 20 -4 7 -6 13 -9 13 -6 0 13 -86
64 -99 59 -8 -3 -11 0 -7 7 10 16 1 14 -13 -3z m63 -35 c-2 -3 -12 3 -22 13
-16 17 -16 18 5 5 12 -7 20 -15 17 -18z"/>
<path d="M1520 6006 c0 -2 15 -23 34 -46 19 -24 32 -50 29 -59 -3 -11 -2 -12
4 -4 6 9 26 -8 67 -58 36 -45 61 -68 67 -62 6 6 6 20 -1 37 -11 30 -14 86 -4
86 3 0 24 -14 45 -31 29 -23 37 -26 32 -12 -6 17 -5 17 18 -2 13 -11 4 2 -21
28 -24 26 -50 45 -58 42 -8 -3 -10 0 -6 7 5 8 2 9 -10 5 -9 -4 -15 -3 -12 2 8
12 -72 43 -86 35 -7 -4 -8 -2 -4 4 4 7 -2 13 -16 17 -38 8 -78 14 -78 11z
m115 -74 c-3 -3 -11 0 -18 7 -9 10 -8 11 6 5 10 -3 15 -9 12 -12z"/>
<path d="M5161 5994 c0 -11 3 -14 6 -6 3 7 2 16 -1 19 -3 4 -6 -2 -5 -13z"/>
<path d="M2997 5940 c10 -13 8 -18 -9 -29 -15 -9 -18 -9 -13 0 5 8 4 10 -3 5
-7 -4 -12 -14 -12 -22 0 -8 -4 -13 -9 -10 -12 7 15 -107 32 -138 27 -51 172
-254 177 -248 3 4 16 13 30 21 24 13 24 13 8 -5 -17 -19 -21 -35 -19 -67 0
-10 5 -15 11 -12 6 3 7 -1 4 -9 -3 -9 -1 -16 6 -16 6 0 9 -4 6 -8 -2 -4 -1
-14 4 -22 7 -12 11 -12 26 1 15 13 16 12 10 -9 -14 -44 49 -81 115 -70 22 4
21 6 -13 21 -21 9 -43 27 -49 39 -11 21 -10 20 19 -4 17 -14 48 -32 69 -39 21
-6 42 -17 46 -23 5 -6 6 5 3 24 -7 46 -16 202 -10 170 2 -14 9 -56 15 -94 11
-69 11 -69 29 -46 18 24 50 23 50 -3 0 -7 9 -13 20 -14 11 -1 20 4 20 13 0 8
5 14 11 14 7 0 9 10 5 26 -4 16 -3 23 3 20 16 -10 23 31 16 89 -4 32 -11 52
-17 49 -6 -4 -7 2 -3 16 4 14 3 20 -3 16 -5 -3 -12 4 -15 15 -4 13 -10 18 -18
13 -7 -4 -10 -3 -6 3 11 18 -40 45 -62 34 -10 -6 -22 -7 -27 -3 -5 4 -2 -1 5
-10 7 -10 11 -18 7 -18 -3 0 -1 -12 4 -26 9 -22 8 -25 -5 -21 -8 4 -14 3 -13
-1 1 -4 -2 -15 -6 -24 -7 -15 -10 -15 -22 -3 -8 7 -14 18 -14 22 0 5 -27 9
-59 9 -67 -1 -58 12 11 16 39 3 44 6 46 29 l2 26 -67 -24 c-38 -12 -73 -21
-79 -19 -7 3 -10 -3 -6 -16 4 -15 7 -17 14 -6 5 8 7 4 4 -15 -3 -19 3 -36 20
-56 27 -32 30 -41 12 -41 -6 0 -8 3 -5 6 4 4 -5 20 -18 36 -14 16 -23 34 -19
39 8 13 -10 11 -26 -3 -13 -11 -13 -11 -2 1 17 20 15 41 -5 64 -10 11 -12 17
-6 13 9 -5 11 -2 7 8 -3 8 -12 17 -21 20 -12 5 -10 12 12 37 31 38 31 82 0 87
-17 3 -17 1 -5 -7 8 -6 11 -11 6 -11 -5 0 -17 7 -27 16 -9 8 -26 16 -37 17
-11 0 -19 4 -16 8 7 12 -57 80 -69 72 -5 -3 -7 -2 -4 4 3 5 -13 27 -35 49 -23
21 -37 32 -31 24z m44 -47 c13 -16 12 -17 -3 -4 -10 7 -18 15 -18 17 0 8 8 3
21 -13z m72 -110 c-7 -2 -21 -2 -30 0 -10 3 -4 5 12 5 17 0 24 -2 18 -5z m-90
-10 c-7 -2 -21 -2 -30 0 -10 3 -4 5 12 5 17 0 24 -2 18 -5z m157 -137 c0 -2
-8 -10 -17 -17 -16 -13 -17 -12 -4 4 13 16 21 21 21 13z m315 -6 c3 -6 -4 -10
-17 -10 -18 0 -20 2 -8 10 19 12 18 12 25 0z m30 -43 c4 5 5 3 1 -4 -3 -6 -2
-14 4 -18 5 -3 10 -10 10 -15 0 -5 -12 2 -26 15 -15 14 -30 23 -34 20 -3 -2
-7 2 -7 10 0 11 4 11 22 -1 12 -8 25 -11 30 -7z m4 -100 c10 2 11 0 3 -3 -10
-5 -10 -9 -1 -20 8 -9 8 -14 1 -14 -6 0 -25 21 -42 48 -30 45 -30 45 -4 17 15
-16 35 -29 43 -28z m-257 -62 c-2 -14 -9 -25 -14 -25 -5 0 -7 3 -5 8 2 4 7 15
10 25 9 25 15 21 9 -8z"/>
<path d="M3287 5929 c7 -7 15 -10 18 -7 3 3 -2 9 -12 12 -14 6 -15 5 -6 -5z"/>
<path d="M3340 5936 c0 -3 9 -10 20 -16 11 -6 20 -8 20 -6 0 3 -9 10 -20 16
-11 6 -20 8 -20 6z"/>
<path d="M3564 5899 c15 -12 25 -24 22 -27 -3 -3 -14 1 -24 9 -10 8 -2 -1 17
-20 46 -43 158 -116 191 -125 14 -3 19 -3 12 0 -10 5 -10 9 0 22 7 9 8 13 2 9
-6 -4 -20 3 -30 15 -13 15 -14 19 -4 14 8 -4 5 1 -7 10 -13 9 -23 22 -23 28 0
6 -30 26 -66 44 -36 18 -63 28 -59 22 3 -5 2 -10 -3 -10 -6 0 -12 7 -16 15 -3
8 -13 15 -22 15 -12 0 -10 -5 10 -21z"/>
<path d="M3271 5884 c0 -11 3 -14 6 -6 3 7 2 16 -1 19 -3 4 -6 -2 -5 -13z"/>
<path d="M7079 5883 c-13 -16 -12 -17 4 -4 9 7 17 15 17 17 0 8 -8 3 -21 -13z"/>
<path d="M1508 5866 c3 -11 11 -28 18 -37 8 -8 15 -27 16 -42 1 -14 5 -24 8
-21 5 5 6 9 9 35 0 5 6 7 11 4 13 -8 12 5 -3 33 -7 13 -25 29 -39 36 -24 13
-25 12 -20 -8z"/>
<path d="M7120 5865 c-7 -8 -16 -13 -20 -10 -5 3 -12 0 -16 -6 -5 -8 -3 -9 6
-4 9 5 11 4 6 -4 -4 -6 -12 -9 -18 -5 -5 3 -23 -6 -38 -21 -27 -26 -28 -29
-15 -56 11 -21 12 -29 2 -32 -8 -4 -8 -6 -1 -6 14 -1 33 20 31 33 -1 5 7 10
17 12 10 1 22 7 25 12 3 4 14 11 24 15 17 6 17 8 3 23 -20 19 -20 23 1 46 9
10 14 18 11 18 -3 0 -11 -7 -18 -15z m-34 -68 c4 -4 0 -7 -9 -7 -9 0 -18 4
-21 9 -7 10 20 9 30 -2z"/>
<path d="M7235 5859 c3 -9 -2 -22 -12 -30 -17 -13 -17 -13 -3 6 l15 20 -25
-20 c-14 -11 -29 -26 -33 -33 -5 -7 -13 -10 -18 -6 -12 7 -109 -66 -109 -83 0
-13 11 -17 43 -14 9 1 17 -3 17 -9 0 -6 5 -8 10 -5 6 4 7 12 3 18 -4 7 2 5 12
-3 11 -9 16 -10 11 -2 -4 6 -4 12 1 13 4 0 21 2 36 3 34 2 43 15 58 85 8 40 8
56 -1 65 -8 8 -10 7 -5 -5z"/>
<path d="M1615 5841 c-3 -6 -4 -21 0 -34 5 -20 5 -20 -9 3 -17 28 -22 19 -6
-10 6 -11 17 -17 24 -14 9 4 21 -6 31 -27 12 -21 19 -28 25 -20 11 19 6 56 -9
53 -7 -1 -10 1 -7 6 3 5 -5 19 -18 31 -16 15 -26 19 -31 12z m26 -18 c13 -16
12 -17 -3 -4 -10 7 -18 15 -18 17 0 8 8 3 21 -13z"/>
<path d="M7142 5841 c-10 -6 -10 -10 1 -20 11 -9 17 -8 28 6 8 9 9 14 2 10 -6
-4 -13 -3 -15 3 -1 5 -9 6 -16 1z"/>
<path d="M2591 5699 c-1 -144 -1 -146 28 -190 42 -66 87 -119 95 -112 3 3 6
-2 6 -13 0 -11 3 -15 8 -9 8 12 49 12 60 0 4 -5 -1 -5 -10 -2 -26 9 -22 2 10
-19 18 -11 23 -13 16 -3 -5 8 -10 21 -9 29 2 20 -11 44 -53 102 -32 45 -36 48
-52 33 -9 -8 -21 -15 -26 -15 -5 0 -2 5 6 10 22 14 19 28 -17 98 -18 35 -33
73 -32 85 1 21 1 21 9 2 4 -11 11 -30 15 -43 8 -23 8 -23 51 19 43 42 57 72
32 67 -7 -2 -12 2 -11 8 1 6 -25 24 -57 40 -33 16 -61 36 -63 44 -3 8 -5 -50
-6 -131z m106 -251 c-3 -7 -5 -2 -5 12 0 14 2 19 5 13 2 -7 2 -19 0 -25z"/>
<path d="M7622 5832 c-1 -7 -6 -11 -11 -8 -5 3 -9 0 -8 -7 1 -36 -4 -45 -22
-40 -10 2 -35 -4 -55 -14 l-35 -18 29 -20 c17 -11 30 -26 30 -33 0 -7 4 -11 9
-8 5 4 12 0 14 -6 3 -7 6 -4 6 6 1 19 1 19 20 0 13 -13 15 -23 9 -31 -7 -9 -7
-13 1 -13 19 0 22 21 18 116 -1 49 -4 83 -5 76z"/>
<path d="M5215 5807 c-16 -17 -20 -38 -22 -97 -1 -41 -3 -79 -4 -85 0 -5 2
-25 6 -43 7 -30 5 -33 -24 -43 -31 -11 -31 -12 -31 -79 0 -70 6 -80 50 -80 24
0 27 -16 45 -225 18 -200 26 -263 32 -229 2 12 25 39 51 61 74 62 82 62 20 0
-52 -52 -65 -67 -55 -67 2 0 79 79 171 175 l169 176 -23 24 c-30 32 -44 32
-36 0 8 -30 -16 -44 -39 -25 -17 14 -16 15 -115 -70 -36 -31 -76 -64 -90 -73
-26 -18 -55 -23 -46 -8 6 10 -12 598 -20 669 -6 47 -11 50 -39 19z"/>
<path d="M7005 5810 c-3 -5 -1 -10 4 -10 6 0 11 5 11 10 0 6 -2 10 -4 10 -3 0
-8 -4 -11 -10z"/>
<path d="M2316 5798 c3 -5 10 -6 15 -3 13 9 11 12 -6 12 -8 0 -12 -4 -9 -9z"/>
<path d="M2346 5792 c-3 -5 4 -18 17 -28 21 -19 21 -19 7 0 -8 11 -13 21 -12
23 2 3 1 7 -1 9 -3 3 -8 1 -11 -4z"/>
<path d="M3592 5789 c2 -6 -3 -14 -9 -16 -7 -3 -13 1 -13 8 0 6 -8 2 -19 -9
-10 -12 -22 -18 -26 -14 -5 4 -5 2 -1 -5 4 -7 13 -10 20 -7 8 3 17 0 22 -7 5
-8 3 -10 -7 -5 -24 13 34 -33 84 -66 33 -22 47 -38 47 -54 0 -14 25 -52 63
-96 34 -40 74 -90 87 -110 26 -40 40 -48 40 -23 0 8 5 15 10 15 6 0 10 7 10
16 0 8 -3 13 -7 11 -5 -3 -8 14 -8 36 -1 47 -41 117 -115 200 -48 55 -146 121
-162 111 -6 -4 -8 -3 -4 4 3 6 2 14 -4 17 -6 4 -9 1 -8 -6z"/>
<path d="M8004 5758 c-16 -18 -21 -26 -11 -19 9 7 18 11 18 7 1 -3 2 -10 3
-16 0 -5 6 -10 11 -10 6 0 10 16 10 35 0 19 0 35 0 35 -1 0 -14 -14 -31 -32z"/>
<path d="M1727 5773 c-13 -12 -7 -25 7 -20 10 4 13 1 9 -9 -5 -12 -10 -11 -31
8 -23 22 -24 22 -14 2 8 -14 8 -24 1 -31 -7 -7 -4 -12 10 -16 12 -3 19 -2 16
3 -9 14 27 21 44 8 13 -10 12 -8 -2 8 -9 11 -15 23 -12 26 3 3 -1 10 -8 16 -8
7 -17 9 -20 5z"/>
<path d="M4980 5763 c0 -10 -3 -41 -6 -69 -6 -49 -5 -51 20 -56 19 -4 26 -1
27 11 0 12 3 11 10 -4 8 -17 9 -17 4 5 -2 14 -5 33 -5 43 0 10 -4 16 -9 13 -4
-3 -6 6 -3 19 2 14 -2 31 -11 40 -20 20 -27 19 -27 -2z"/>
<path d="M3392 5725 c0 -16 2 -22 5 -12 2 9 2 23 0 30 -3 6 -5 -1 -5 -18z"/>
<path d="M3435 5722 c-11 -12 -4 -46 13 -58 20 -16 36 -18 27 -4 -8 13 1 13
24 1 9 -5 23 -6 30 -1 10 6 7 10 -10 15 -29 9 -60 35 -54 45 5 8 -22 9 -30 2z"/>
<path d="M2746 5701 c-9 -10 -13 -21 -9 -25 5 -4 4 -6 -2 -5 -5 2 -20 -3 -32
-11 -15 -10 -19 -18 -12 -26 7 -8 5 -11 -7 -10 -9 0 -19 -4 -21 -10 -5 -15 46
-76 57 -69 5 3 12 0 16 -6 4 -8 3 -9 -4 -5 -7 4 -12 4 -12 0 0 -10 68 -100 87
-115 15 -11 16 -11 6 1 -10 11 -9 17 4 32 14 16 15 24 6 49 -8 20 -8 29 -1 29
6 0 -1 9 -15 21 -15 11 -26 25 -24 32 1 6 -5 11 -13 12 -8 1 -14 7 -12 14 1 7
-3 20 -9 27 -9 10 -9 18 -2 25 8 8 13 7 18 -2 5 -8 4 -10 -3 -5 -21 13 -13 -4
20 -39 22 -25 34 -32 39 -23 4 7 5 16 3 20 -3 4 0 8 6 8 15 0 3 39 -19 63 -28
33 -47 38 -65 18z m62 -36 c-3 -3 -9 2 -12 12 -6 14 -5 15 5 6 7 -7 10 -15 7
-18z m-3 -45 c10 -11 14 -20 9 -20 -5 0 -15 9 -22 20 -7 11 -11 20 -9 20 2 0
12 -9 22 -20z m-80 -49 c-3 -6 -11 -8 -17 -5 -6 4 -5 9 3 15 16 10 23 4 14
-10z"/>
<path d="M3848 5713 c7 -3 16 -2 19 1 4 3 -2 6 -13 5 -11 0 -14 -3 -6 -6z"/>
<path d="M3928 5703 c6 -2 18 -2 25 0 6 3 1 5 -13 5 -14 0 -19 -2 -12 -5z"/>
<path d="M4043 5693 c15 -2 37 -2 50 0 12 2 0 4 -28 4 -27 0 -38 -2 -22 -4z"/>
<path d="M2440 5686 c0 -2 8 -10 18 -17 15 -13 16 -12 3 4 -13 16 -21 21 -21
13z"/>
<path d="M3278 5683 c7 -3 16 -2 19 1 4 3 -2 6 -13 5 -11 0 -14 -3 -6 -6z"/>
<path d="M3385 5680 c3 -5 8 -10 11 -10 2 0 4 5 4 10 0 6 -5 10 -11 10 -5 0
-7 -4 -4 -10z"/>
<path d="M2867 5633 c-11 -11 -8 -20 7 -20 8 0 12 6 9 14 -6 15 -7 15 -16 6z"/>
<path d="M2904 5613 c2 -10 6 -17 10 -16 15 3 16 11 2 22 -12 10 -14 9 -12 -6z"/>
<path d="M1576 5603 c-4 -10 0 -23 11 -32 15 -15 16 -15 5 0 -7 9 -10 24 -6
33 3 9 4 16 1 16 -3 0 -8 -8 -11 -17z"/>
<path d="M3854 5570 c18 -31 40 -76 47 -100 7 -25 18 -48 24 -52 17 -12 23 25
9 60 -7 17 -10 32 -7 32 3 0 -4 8 -15 19 -12 10 -22 23 -22 30 0 6 -4 10 -8 9
-5 -2 -21 11 -36 27 -24 26 -23 23 8 -25z"/>
<path d="M8295 5600 c-3 -11 -8 -32 -11 -47 -4 -27 -3 -27 11 -9 8 11 15 32
15 48 0 33 -6 36 -15 8z"/>
<path d="M7611 5594 c0 -11 3 -14 6 -6 3 7 2 16 -1 19 -3 4 -6 -2 -5 -13z"/>
<path d="M6701 5564 c0 -11 3 -14 6 -6 3 7 2 16 -1 19 -3 4 -6 -2 -5 -13z"/>
<path d="M7649 5553 c-13 -16 -12 -17 4 -4 9 7 17 15 17 17 0 8 -8 3 -21 -13z"/>
<path d="M2091 5520 c-6 -18 -6 -28 -1 -25 6 3 9 -2 8 -12 -3 -37 2 -54 14
-47 7 5 9 0 6 -14 -4 -16 -2 -19 10 -15 9 4 13 2 9 -4 -5 -7 7 -11 32 -10 l40
2 -25 30 c-13 17 -29 40 -34 53 -6 14 -15 20 -22 16 -7 -4 -8 -3 -4 5 9 13 -2
51 -14 51 -4 0 -13 -14 -19 -30z"/>
<path d="M7607 5543 c-4 -3 -7 -11 -7 -17 0 -6 5 -5 12 2 6 6 9 14 7 17 -3 3
-9 2 -12 -2z"/>
<path d="M4310 5533 c-22 -9 -30 -24 -30 -61 0 -39 20 -64 40 -52 8 5 18 6 22
4 4 -3 8 11 8 31 0 25 -4 34 -12 29 -8 -5 -9 2 -5 24 7 32 4 35 -23 25z"/>
<path d="M5052 5520 c0 -14 2 -19 5 -12 2 6 2 18 0 25 -3 6 -5 1 -5 -13z"/>
<path d="M7831 5524 c0 -11 3 -14 6 -6 3 7 2 16 -1 19 -3 4 -6 -2 -5 -13z"/>
<path d="M7853 5534 c9 -9 -12 -46 -22 -39 -5 2 -11 -4 -14 -15 -3 -11 -2 -19
2 -18 19 2 24 -3 11 -12 -13 -9 -13 -11 0 -20 12 -7 16 -4 18 15 2 14 8 25 13
25 5 0 9 5 9 11 0 5 -6 7 -12 4 -7 -4 -6 -1 2 7 17 14 15 48 -2 48 -6 0 -8 -3
-5 -6z"/>
<path d="M4966 5468 c-7 -67 -6 -203 1 -176 2 9 10 19 18 21 9 4 13 -4 12 -29
-1 -20 4 -38 10 -42 6 -4 7 -15 2 -27 -5 -15 -8 -16 -8 -4 -1 9 -9 26 -20 38
l-18 21 -7 -31 c-3 -17 -6 -56 -6 -85 0 -30 -3 -54 -6 -54 -10 0 -214 171
-229 193 l-15 22 -25 -27 c-17 -18 -31 -25 -43 -21 -17 7 51 -73 225 -263 69
-75 93 -109 94 -130 2 -27 2 -27 6 -4 3 14 9 29 14 34 5 6 9 15 9 20 0 6 -4 5
-8 -2 -6 -9 -20 4 -45 41 -44 64 -48 99 -12 115 32 15 75 15 75 1 0 -5 5 -7
11 -3 7 4 9 0 6 -12 -11 -37 -19 -89 -14 -84 3 3 21 64 41 137 25 90 35 144
31 171 -2 21 -1 52 4 68 4 16 5 49 1 74 -4 25 -8 35 -9 23 -1 -16 -6 -21 -16
-17 -8 4 -15 11 -15 18 0 6 -13 26 -29 43 l-28 33 -7 -62z m61 -90 c-3 -7 -5
-2 -5 12 0 14 2 19 5 13 2 -7 2 -19 0 -25z m25 -41 c-4 -7 -9 -25 -10 -41 -3
-39 -12 -47 -12 -10 0 42 11 75 22 68 5 -3 5 -11 0 -17z"/>
<path d="M7786 5403 c-4 -9 -1 -11 5 -7 7 4 10 1 7 -7 -3 -8 -11 -13 -17 -11
-7 1 -10 -2 -6 -8 3 -5 13 -10 21 -10 9 0 22 -7 31 -15 8 -8 19 -13 24 -10 5
4 9 -2 9 -11 0 -23 6 -15 14 19 4 19 3 26 -6 25 -7 -2 -14 7 -16 20 -2 12 -6
23 -10 23 -34 7 -52 4 -56 -8z"/>
<path d="M2268 5393 c7 -3 16 -2 19 1 4 3 -2 6 -13 5 -11 0 -14 -3 -6 -6z"/>
<path d="M3660 5397 c0 -2 15 -14 33 -27 20 -15 27 -17 18 -6 -13 16 -51 41
-51 33z"/>
<path d="M1935 5368 c-48 -17 -75 -31 -70 -36 3 -3 -3 -14 -12 -25 -10 -10 5
-4 33 15 28 18 60 38 70 45 23 14 19 14 -21 1z"/>
<path d="M7461 5350 c-19 -16 -36 -38 -37 -47 -2 -10 -14 -27 -26 -38 -36 -31
-138 -189 -138 -213 0 -10 43 55 75 115 15 29 30 51 34 50 3 -1 8 3 10 8 3 6
10 16 18 23 16 16 105 132 101 132 -2 -1 -18 -14 -37 -30z"/>
<path d="M1525 5350 c-3 -5 -1 -10 4 -10 6 0 11 5 11 10 0 6 -2 10 -4 10 -3 0
-8 -4 -11 -10z"/>
<path d="M1647 5353 c-17 -3 -25 -9 -21 -15 5 -7 1 -9 -9 -5 -9 3 -18 1 -21
-6 -3 -8 -8 -6 -16 6 -10 15 -13 16 -26 2 -9 -8 -24 -15 -34 -15 -18 0 -47
-36 -42 -52 1 -5 -5 -8 -13 -8 -18 0 -9 22 25 58 19 20 19 22 3 22 -10 0 -45
-11 -77 -25 -33 -13 -62 -22 -65 -20 -8 9 -31 -17 -24 -28 3 -5 2 -7 -4 -4 -5
3 -36 -22 -69 -56 -32 -34 -49 -53 -36 -43 12 11 22 15 22 9 0 -12 -31 -42
-43 -41 -5 0 -11 -3 -14 -5 -8 -8 20 -2 35 7 7 4 16 5 19 2 11 -11 62 24 66
46 l4 23 2 -23 c1 -19 4 -21 20 -13 23 13 237 71 254 70 6 -1 -6 -7 -28 -14
-22 -8 -33 -14 -24 -14 30 -2 79 21 79 36 0 11 3 13 13 5 8 -7 24 -6 52 5 22
8 55 19 73 25 17 6 32 15 32 20 0 5 -5 6 -12 2 -6 -4 -21 5 -36 22 -17 21 -21
23 -13 7 9 -18 9 -22 -3 -17 -8 3 -16 14 -19 25 -3 10 -9 18 -14 18 -4 -1 -20
-4 -36 -6z m-328 -126 c0 -8 -2 -8 -6 1 -4 10 -8 10 -21 0 -15 -12 -16 -11 -3
4 14 19 32 15 30 -5z m141 19 c0 -2 -7 -9 -15 -16 -13 -11 -14 -10 -9 4 5 14
24 23 24 12z m-190 -40 c0 -2 -8 -10 -17 -17 -16 -13 -17 -12 -4 4 13 16 21
21 21 13z"/>
<path d="M3501 5353 c-1 -6 -4 -18 -7 -27 -5 -13 1 -16 27 -15 26 0 30 2 15 8
-11 4 -23 16 -27 27 -4 10 -8 14 -8 7z"/>
<path d="M3640 5356 c0 -10 60 -96 66 -96 6 0 -2 14 -38 64 -15 21 -28 36 -28
32z"/>
<path d="M8296 5351 c-3 -5 1 -11 9 -14 9 -4 12 -1 8 9 -6 16 -10 17 -17 5z"/>
<path d="M2730 5326 c0 -2 8 -10 18 -17 15 -13 16 -12 3 4 -13 16 -21 21 -21
13z"/>
<path d="M7982 5305 c-30 -7 -57 -16 -60 -20 -4 -4 7 -4 23 0 71 16 105 26
105 30 0 6 -3 6 -68 -10z"/>
<path d="M5106 5298 c-9 -30 -36 -221 -32 -225 2 -2 7 14 11 37 6 37 8 39 20
23 13 -17 14 -16 8 5 -3 12 -1 22 5 22 6 0 13 -10 15 -22 2 -13 3 -7 1 12 -2
19 -4 63 -4 98 0 36 -4 62 -10 62 -6 0 -12 -6 -14 -12z"/>
<path d="M2940 5294 c0 -3 14 -10 31 -16 17 -6 27 -13 22 -17 -4 -3 -9 -19
-10 -36 -2 -19 1 -25 6 -17 8 14 38 11 97 -8 39 -13 50 -9 41 14 -7 19 -78 55
-95 49 -7 -3 -18 0 -25 5 -16 14 -67 33 -67 26z m139 -63 c-6 -2 -18 4 -27 13
-15 15 -15 15 10 4 15 -7 23 -15 17 -17z"/>
<path d="M7191 5274 c-6 -15 -9 -29 -6 -32 3 -3 5 1 5 9 1 10 4 9 11 -4 6 -10
11 -46 11 -80 1 -34 3 -51 5 -37 3 14 9 29 14 35 14 14 11 48 -3 39 -8 -5 -7
0 2 11 12 15 12 17 1 10 -11 -6 -13 -4 -8 9 4 10 3 15 -3 11 -13 -8 -13 11 0
36 8 14 7 19 -3 19 -8 0 -19 -12 -26 -26z"/>
<path d="M2767 5280 c7 -8 20 -15 29 -16 9 -1 13 1 9 4 -4 4 -10 7 -13 7 -4 0
-14 4 -22 9 -12 7 -13 6 -3 -4z"/>
<path d="M7250 5268 c-10 -21 -10 -21 3 -5 8 9 21 17 30 17 12 0 13 -6 5 -37
-5 -21 -14 -60 -20 -86 -8 -34 -14 -45 -20 -35 -6 9 -7 6 -3 -9 4 -14 -1 -33
-12 -50 -10 -15 -16 -29 -15 -31 2 -2 0 -7 -4 -10 -4 -4 -4 -1 1 7 5 9 4 12
-3 7 -6 -4 -9 -13 -6 -21 4 -8 -8 -30 -28 -51 -18 -19 -32 -40 -30 -45 1 -6
-2 -8 -6 -5 -5 3 -18 -4 -28 -15 -17 -19 -17 -20 2 -13 16 6 16 4 -5 -19 -27
-30 -33 -33 -25 -14 6 18 -22 42 -31 27 -3 -5 0 -10 8 -10 18 0 12 -36 -9 -61
-8 -9 -11 -18 -8 -22 4 -4 -8 -2 -26 3 -36 10 -54 5 -44 -12 5 -7 1 -9 -9 -5
-21 8 -69 -47 -60 -70 4 -10 2 -14 -4 -10 -10 6 -29 -37 -25 -55 1 -4 -4 -5
-11 -2 -12 4 -52 -40 -59 -64 -7 -24 15 -13 64 33 30 28 102 94 161 149 59 54
104 103 101 108 -3 4 -2 8 3 7 4 -1 19 2 32 8 20 8 22 11 7 16 -15 6 -15 8 4
27 20 20 45 18 54 -6 4 -11 10 -11 34 3 29 17 61 66 36 56 -22 -8 -56 17 -51
38 3 11 1 16 -5 13 -6 -4 -8 1 -4 12 18 60 66 239 66 246 0 19 -50 7 -60 -14z"/>
<path d="M7884 5277 c-67 -40 -114 -73 -118 -83 -8 -21 21 -9 59 25 21 18 48
37 61 43 13 6 24 15 24 20 0 10 -1 10 -26 -5z"/>
<path d="M1768 5273 c7 -3 16 -2 19 1 4 3 -2 6 -13 5 -11 0 -14 -3 -6 -6z"/>
<path d="M2291 5258 c36 -16 47 -26 47 -44 0 -15 -5 -21 -15 -17 -10 4 -11 9
-2 19 16 19 -27 34 -78 27 -23 -3 -48 -1 -58 4 -11 7 -34 7 -64 0 -25 -5 -56
-9 -68 -8 -13 0 -23 -3 -23 -8 0 -5 -10 -11 -21 -13 -32 -4 -47 -33 -31 -58 6
-11 12 -27 12 -35 0 -9 5 -13 10 -10 6 3 10 -1 10 -9 0 -21 52 -29 157 -23
111 5 303 29 303 37 0 3 -18 23 -40 45 -21 21 -36 43 -33 48 3 6 1 7 -6 3 -15
-10 -43 13 -34 28 3 6 3 8 -1 4 -4 -3 -28 2 -53 13 -24 10 -48 19 -51 18 -4
-1 14 -10 39 -21z m-264 -103 c-4 -8 -12 -15 -19 -14 -10 0 -10 2 0 6 6 2 12
12 12 21 0 8 3 13 6 9 4 -3 4 -13 1 -22z"/>
<path d="M7908 5254 c-16 -8 -28 -18 -28 -22 0 -5 -21 -21 -46 -37 -48 -31
-76 -66 -56 -73 9 -3 9 -9 1 -24 -8 -15 -8 -19 0 -14 10 6 15 -5 13 -26 -1 -3
5 -11 13 -18 7 -6 11 -19 8 -27 -4 -11 -2 -14 5 -9 10 6 16 -4 14 -25 -1 -3 4
-6 11 -7 32 -3 114 -24 132 -34 11 -6 17 -7 13 -3 -10 10 11 47 22 40 6 -3 7
0 4 8 -3 8 1 14 10 14 8 0 13 -4 10 -8 -3 -5 2 -19 11 -32 8 -13 14 -25 12
-28 -1 -2 12 11 30 29 26 26 31 37 23 51 -5 10 -6 22 -2 26 4 5 1 5 -6 1 -7
-4 -10 -12 -7 -17 3 -5 -1 -6 -10 -3 -14 6 -14 9 -1 29 14 21 13 24 -3 39 -10
9 -22 13 -27 9 -5 -5 0 2 10 15 20 23 43 31 30 10 -5 -7 -3 -8 5 -4 7 5 10 11
7 14 -3 3 1 13 9 22 8 9 18 37 21 62 l6 45 -38 6 c-68 12 -168 7 -196 -9z m45
-161 c-7 -2 -21 -2 -30 0 -10 3 -4 5 12 5 17 0 24 -2 18 -5z m27 -53 c0 -5 -2
-10 -4 -10 -3 0 -8 5 -11 10 -3 6 -1 10 4 10 6 0 11 -4 11 -10z m-14 -27 c-7
-7 -26 7 -26 19 0 6 6 6 15 -2 9 -7 13 -15 11 -17z m34 -14 c0 -6 -4 -7 -10
-4 -5 3 -10 11 -10 16 0 6 5 7 10 4 6 -3 10 -11 10 -16z"/>
<path d="M8420 5261 c0 -15 23 -28 95 -51 39 -12 75 -29 81 -36 10 -13 13 -12
18 2 10 26 7 34 -11 27 -10 -4 -14 -2 -10 4 4 6 -23 21 -66 37 -75 27 -107 32
-107 17z m130 -41 c0 -5 -2 -10 -4 -10 -3 0 -8 5 -11 10 -3 6 -1 10 4 10 6 0
11 -4 11 -10z"/>
<path d="M6015 5253 c3 -3 -4 -12 -15 -20 -14 -10 -25 -11 -38 -4 -13 7 -23 6
-31 -2 -10 -9 -11 -8 -6 8 5 15 5 17 -3 6 -12 -17 1 -49 23 -57 19 -8 55 14
55 32 0 10 6 14 14 11 14 -6 17 17 3 28 -4 3 -5 2 -2 -2z"/>
<path d="M2809 5223 c12 -18 25 -33 28 -33 3 0 0 7 -7 15 -6 8 -8 20 -4 27 4
7 4 10 -1 6 -4 -4 -15 -2 -24 5 -8 6 -5 -3 8 -20z"/>
<path d="M8152 5245 c4 -4 0 -28 -8 -53 -7 -26 -14 -48 -14 -49 0 -2 20 -3 45
-3 29 0 45 4 45 13 0 8 4 7 10 -3 7 -11 10 -6 10 22 0 39 -7 46 -67 69 -15 5
-25 7 -21 4z"/>
<path d="M2926 5225 c-3 -10 -4 -20 -1 -23 3 -3 5 0 5 7 0 7 5 9 10 6 8 -5 8
-11 0 -20 -13 -15 -2 -48 13 -38 6 3 7 1 3 -5 -8 -13 48 -135 71 -154 8 -6 20
-25 27 -42 7 -17 32 -52 56 -78 23 -27 38 -48 33 -48 -11 0 -64 63 -135 163
-32 44 -58 76 -58 71 0 -6 6 -16 13 -24 10 -12 9 -12 -6 0 -11 8 -16 21 -14
32 3 10 1 21 -4 24 -5 3 -18 22 -29 42 -10 20 -19 32 -20 26 0 -6 11 -27 25
-47 13 -20 20 -39 16 -42 -5 -2 -25 20 -45 50 -20 30 -39 55 -42 55 -3 0 20
-36 50 -80 41 -58 52 -80 40 -80 -13 0 -15 -6 -9 -27 5 -16 8 -36 9 -45 0 -9
2 -15 4 -13 2 2 15 -9 29 -26 14 -16 75 -67 137 -114 61 -47 154 -121 206
-166 52 -44 74 -61 49 -37 -32 30 -41 44 -30 45 9 1 32 4 51 6 21 2 43 -2 55
-12 11 -8 -78 84 -197 204 -208 211 -218 223 -243 290 -14 39 -34 81 -44 94
-16 21 -19 22 -25 6z m47 -285 c-3 -11 -7 -20 -9 -20 -2 0 -4 9 -4 20 0 11 4
20 9 20 5 0 7 -9 4 -20z m277 -125 c30 -30 52 -55 49 -55 -2 0 -29 25 -59 55
-30 30 -52 55 -49 55 2 0 29 -25 59 -55z m-61 -29 c-3 -3 -11 5 -18 17 -13 21
-12 21 5 5 10 -10 16 -20 13 -22z m69 -55 c-13 -15 -27 -26 -31 -24 -10 6 32
53 46 53 4 0 -2 -13 -15 -29z m77 -1 c10 -11 16 -20 13 -20 -3 0 -13 9 -23 20
-10 11 -16 20 -13 20 3 0 13 -9 23 -20z m55 -55 c13 -14 21 -25 18 -25 -2 0
-15 11 -28 25 -13 14 -21 25 -18 25 2 0 15 -11 28 -25z"/>
<path d="M3144 5226 c11 -9 15 -16 10 -16 -6 0 -11 -8 -11 -17 0 -16 1 -16 11
-1 9 15 11 15 25 -1 23 -26 229 -132 216 -112 -7 12 -179 111 -192 111 -6 0
-16 7 -23 16 -8 8 -23 20 -34 25 -20 10 -21 10 -2 -5z"/>
<path d="M4190 5228 c0 -9 5 -20 10 -23 6 -4 7 -11 4 -17 -4 -7 2 -8 17 -3 33
10 49 24 43 39 -6 15 -41 18 -50 4 -4 -6 -10 -5 -15 3 -7 11 -9 10 -9 -3z"/>
<path d="M7125 5220 c-3 -6 1 -7 9 -4 18 7 21 14 7 14 -6 0 -13 -4 -16 -10z"/>
<path d="M3333 5203 c-17 -6 -17 -23 0 -23 8 0 14 7 14 15 0 8 -1 15 -1 14 -1
0 -7 -3 -13 -6z"/>
<path d="M7379 5193 c-13 -16 -12 -17 4 -4 16 13 21 21 13 21 -2 0 -10 -8 -17
-17z"/>
<path d="M8636 5187 c3 -12 10 -26 15 -31 5 -6 9 -27 9 -47 0 -31 4 -38 28
-47 55 -21 90 -22 95 -4 3 10 5 7 6 -9 1 -22 8 -28 44 -38 41 -12 137 -6 242
16 30 6 30 6 -21 28 -93 41 -125 49 -136 34 -8 -11 -9 -10 -4 3 4 13 -7 21
-47 34 -29 9 -94 32 -145 50 -91 32 -93 32 -86 11z m64 -37 c19 -11 31 -19 25
-19 -5 0 -26 8 -45 19 -19 11 -30 19 -25 19 6 0 26 -8 45 -19z"/>
<path d="M1895 5156 c-28 -18 -57 -41 -64 -50 -17 -20 -5 -21 69 -5 43 9 50
14 50 34 0 13 3 30 6 39 9 24 -6 20 -61 -18z"/>
<path d="M3765 5160 c9 -16 18 -30 21 -30 2 0 -2 14 -11 30 -9 17 -18 30 -21
30 -2 0 2 -13 11 -30z"/>
<path d="M2440 5178 c0 -6 127 -98 135 -98 4 0 -19 19 -51 43 -66 48 -84 60
-84 55z"/>
<path d="M7349 5153 c-13 -16 -12 -17 4 -4 9 7 17 15 17 17 0 8 -8 3 -21 -13z"/>
<path d="M5935 5140 c2 -14 5 -32 5 -41 0 -30 25 -29 25 2 1 15 -3 25 -7 23
-5 -3 -13 5 -18 18 -11 23 -11 23 -5 -2z"/>
<path d="M1739 5113 l-24 -28 28 24 c25 23 32 31 24 31 -2 0 -14 -12 -28 -27z"/>
<path d="M3902 5090 c-14 -31 -8 -55 10 -44 7 4 6 9 -3 14 -10 7 -10 11 0 24
7 8 11 20 9 26 -1 5 -9 -3 -16 -20z"/>
<path d="M7673 5105 c0 -8 4 -12 9 -9 5 3 6 10 3 15 -9 13 -12 11 -12 -6z"/>
<path d="M3826 5088 c10 -15 -8 -31 -18 -17 -8 11 -9 11 -6 1 2 -8 7 -13 12
-12 5 1 12 -2 15 -7 3 -5 29 -29 56 -53 28 -25 38 -31 23 -14 -16 16 -28 38
-28 47 0 9 -9 26 -19 36 -11 11 -17 21 -15 24 2 2 -3 4 -11 4 -8 0 -12 -4 -9
-9z m37 -42 c4 -10 1 -13 -8 -9 -8 3 -12 9 -9 14 7 12 11 11 17 -5z"/>
<path d="M7195 5079 c-5 -8 -4 -10 3 -5 17 11 15 -4 -5 -28 -15 -18 -14 -18 7
1 18 17 21 26 13 34 -8 8 -13 7 -18 -2z"/>
<path d="M1707 5008 c-35 -35 -51 -52 -35 -39 15 14 28 21 28 17 0 -5 7 -3 15
4 8 7 12 17 8 23 -4 6 -1 7 6 2 7 -4 11 -15 8 -25 -3 -11 6 -29 23 -45 25 -24
28 -25 41 -8 8 9 9 14 3 10 -7 -4 -14 0 -18 8 -4 10 1 15 14 15 11 0 20 5 20
11 0 5 -4 8 -9 5 -5 -4 -7 3 -4 13 3 11 -3 27 -15 39 -11 11 -18 23 -14 26 3
3 2 6 -1 6 -4 0 -35 -28 -70 -62z m63 37 c0 -2 -10 -9 -22 -15 -22 -11 -22
-10 -4 4 21 17 26 19 26 11z"/>
<path d="M2135 5060 c-4 -6 -10 -8 -15 -5 -10 6 -7 -21 4 -32 4 -4 6 -3 4 4
-2 9 4 15 15 12 29 -8 47 -5 62 11 18 20 17 20 -23 20 -22 0 -44 -5 -47 -10z"/>
<path d="M2531 5026 c-12 -13 -18 -27 -13 -30 11 -7 35 19 38 40 3 19 1 18
-25 -10z m19 0 c0 -2 -8 -10 -17 -17 -16 -13 -17 -12 -4 4 13 16 21 21 21 13z"/>
<path d="M3061 5033 c45 -57 75 -83 93 -82 20 0 20 1 -1 9 -31 13 -29 18 5 14
15 -2 20 -1 12 2 -23 9 -95 58 -98 67 -2 4 -8 7 -14 7 -6 0 -5 -7 3 -17z"/>
<path d="M5062 5030 c0 -14 2 -19 5 -12 2 6 2 18 0 25 -3 6 -5 1 -5 -13z"/>
<path d="M3896 5018 c3 -5 10 -6 15 -3 13 9 11 12 -6 12 -8 0 -12 -4 -9 -9z"/>
<path d="M4252 5010 c0 -14 2 -19 5 -12 2 6 2 18 0 25 -3 6 -5 1 -5 -13z"/>
<path d="M7680 5016 c0 -2 8 -10 18 -17 15 -13 16 -12 3 4 -13 16 -21 21 -21
13z"/>
<path d="M2465 4970 c-16 -16 -25 -30 -20 -30 4 0 0 -10 -11 -22 l-19 -23 23
19 c12 11 20 22 17 24 -3 3 7 18 22 34 15 15 24 28 22 28 -3 0 -18 -13 -34
-30z"/>
<path d="M4209 4973 c-13 -17 -13 -17 6 -3 11 8 22 16 24 17 2 2 0 3 -6 3 -6
0 -17 -8 -24 -17z"/>
<path d="M5047 4940 c-4 -25 -10 -61 -13 -80 l-6 -35 36 38 c30 32 39 37 51
27 12 -10 15 -10 15 2 0 17 -41 58 -57 58 -7 0 -13 8 -15 18 -2 9 -7 -3 -11
-28z"/>
<path d="M4981 4954 c0 -11 3 -14 6 -6 3 7 2 16 -1 19 -3 4 -6 -2 -5 -13z"/>
<path d="M1727 4949 c7 -7 15 -10 18 -7 3 3 -2 9 -12 12 -14 6 -15 5 -6 -5z"/>
<path d="M2374 4928 l-29 -33 33 29 c30 28 37 36 29 36 -2 0 -16 -15 -33 -32z"/>
<path d="M4191 4921 c-37 -46 -40 -85 -10 -136 l21 -36 16 22 c9 13 18 46 20
75 l4 53 -33 -9 -34 -9 28 24 c15 13 27 27 27 30 -1 17 2 18 10 0 8 -19 9 -19
9 3 1 34 -24 27 -58 -17z"/>
<path d="M3951 4913 c27 -52 43 -66 19 -16 -11 23 -24 44 -29 47 -5 3 0 -11
10 -31z"/>
<path d="M7089 4933 c-13 -16 -12 -17 4 -4 16 13 21 21 13 21 -2 0 -10 -8 -17
-17z"/>
<path d="M7039 4893 c-13 -16 -12 -17 4 -4 9 7 17 15 17 17 0 8 -8 3 -21 -13z"/>
<path d="M5243 4820 c0 -47 2 -66 4 -42 2 23 2 61 0 85 -2 23 -4 4 -4 -43z"/>
<path d="M5262 4870 c0 -14 2 -19 5 -12 2 6 2 18 0 25 -3 6 -5 1 -5 -13z"/>
<path d="M4044 4839 c-4 -8 -3 -9 4 -5 17 10 15 -9 -1 -23 -8 -6 -18 -7 -22
-3 -4 4 0 -6 9 -23 23 -39 60 -67 80 -59 18 7 21 31 6 54 -6 9 -5 17 2 21 19
12 1 38 -21 32 -12 -3 -27 0 -35 6 -11 9 -16 9 -22 0z"/>
<path d="M5141 4824 c0 -11 3 -14 6 -6 3 7 2 16 -1 19 -3 4 -6 -2 -5 -13z"/>
<path d="M4142 4810 c0 -14 2 -19 5 -12 2 6 2 18 0 25 -3 6 -5 1 -5 -13z"/>
<path d="M2565 4800 c4 -7 -3 -8 -21 -4 -18 5 -25 3 -20 -4 8 -13 -25 -25 -48
-16 -9 4 -16 1 -16 -6 0 -7 -7 -10 -16 -6 -8 3 -13 2 -10 -2 2 -4 -22 -7 -53
-7 -43 -1 -65 -6 -89 -24 -18 -12 -30 -27 -26 -32 3 -5 0 -8 -8 -7 -7 2 -12
-4 -10 -12 2 -8 0 -12 -4 -8 -10 11 -35 -12 -27 -25 4 -6 1 -7 -7 -2 -7 4 -15
3 -19 -3 -4 -6 -25 -14 -46 -18 -22 -3 -56 -14 -77 -25 -38 -19 -57 -39 -39
-39 6 0 11 -5 11 -12 0 -9 -3 -9 -12 0 -7 7 -31 12 -54 12 l-43 0 4 -62 c3
-47 1 -57 -6 -39 -5 13 -10 35 -11 48 -2 14 -11 29 -21 35 -14 7 -17 7 -13 -1
9 -14 -3 -53 -14 -46 -8 5 -70 -141 -70 -165 0 -5 54 17 120 50 66 33 123 59
127 58 5 -2 8 0 8 3 0 11 27 39 37 39 6 0 4 -8 -3 -17 -8 -10 5 -2 29 17 50
40 55 50 10 20 l-33 -22 33 31 c17 17 32 38 32 47 0 10 5 14 15 10 9 -3 15 0
15 9 0 9 -6 12 -17 9 -14 -5 -15 -4 -4 4 10 7 20 7 32 -1 21 -13 40 -5 111 47
26 18 81 44 122 57 l76 24 -37 12 -38 12 38 -6 c30 -4 37 -2 37 11 0 9 5 16
10 16 6 0 10 -4 10 -10 0 -5 9 -18 20 -28 19 -18 19 -18 -8 -16 -59 4 -272
-86 -272 -115 0 -3 17 -14 38 -23 32 -13 51 -15 108 -8 38 5 72 9 77 10 4 0 7
8 8 18 0 10 3 12 6 5 5 -15 83 -18 83 -4 0 5 9 11 20 14 11 3 20 1 20 -4 0 -5
5 -9 10 -9 6 0 10 20 10 45 0 31 -5 47 -17 55 -14 8 -6 9 32 6 l50 -4 -32 14
c-23 9 -33 21 -34 37 -1 21 -1 21 -9 -3 -7 -23 -8 -23 -9 -3 -1 12 -4 30 -8
40 -6 15 -4 16 8 6 13 -10 16 -10 16 3 0 12 -8 15 -33 12 -18 -2 -30 0 -28 4
3 4 -2 8 -11 8 -9 0 -13 -5 -10 -10z"/>
<path d="M5940 4799 c0 -5 -6 -7 -12 -3 -9 5 -9 3 1 -9 15 -19 33 -13 24 8 -6
17 -13 20 -13 4z"/>
<path d="M7920 4763 c0 -4 5 -15 10 -23 8 -13 10 -13 10 2 0 9 -4 20 -10 23
-5 3 -10 3 -10 -2z"/>
<path d="M5151 4713 c0 -28 2 -54 7 -57 4 -2 6 14 4 37 -5 68 -10 76 -11 20z"/>
<path d="M4170 4719 c0 -5 5 -7 10 -4 6 3 10 8 10 11 0 2 -4 4 -10 4 -5 0 -10
-5 -10 -11z"/>
<path d="M7968 4704 c12 -17 28 -37 36 -44 14 -11 13 -15 -9 -32 -32 -25 -32
-52 2 -97 16 -20 27 -39 26 -43 -1 -3 23 -28 55 -54 31 -27 48 -37 37 -24
l-20 25 27 -24 c15 -13 25 -29 21 -35 -3 -6 -3 -8 1 -4 4 3 32 -2 62 -12 30
-11 54 -16 54 -12 0 4 5 0 10 -8 8 -13 10 -12 10 4 0 10 -6 16 -12 14 -7 -2
-26 9 -42 25 l-29 28 27 -10 c23 -9 28 -8 35 12 4 12 11 48 14 79 l5 56 -35
17 c-19 9 -41 14 -49 11 -8 -3 -14 -1 -14 4 0 4 -15 12 -32 15 -57 13 -112 45
-157 93 -28 31 -36 36 -23 16z m143 -231 c13 -16 12 -17 -3 -4 -10 7 -18 15
-18 17 0 8 8 3 21 -13z m79 -59 c0 -3 -13 4 -30 16 -16 12 -30 24 -30 26 0 3
14 -4 30 -16 17 -12 30 -24 30 -26z"/>
<path d="M7674 4713 c5 -9 1 -12 -11 -11 -36 3 -147 -4 -130 -9 9 -2 17 -13
17 -23 0 -10 11 -25 24 -34 14 -8 27 -23 30 -33 8 -24 86 -26 86 -3 1 12 3 11
11 -2 7 -12 22 -18 49 -18 34 0 42 4 55 30 19 38 19 76 -1 84 -9 3 -37 6 -63
6 -26 0 -53 6 -60 13 -11 9 -13 9 -7 0z"/>
<path d="M7718 4713 c7 -3 16 -2 19 1 4 3 -2 6 -13 5 -11 0 -14 -3 -6 -6z"/>
<path d="M7910 4716 c0 -2 7 -6 15 -10 8 -3 15 -1 15 4 0 6 -7 10 -15 10 -8 0
-15 -2 -15 -4z"/>
<path d="M4209 4664 c-20 -23 -17 -58 9 -116 l20 -43 0 45 c0 25 -3 65 -6 89
-7 41 -8 42 -23 25z"/>
<path d="M7505 4670 c-3 -5 -5 -27 -4 -48 2 -31 7 -38 25 -40 31 -2 39 29 19
68 -16 31 -29 38 -40 20z"/>
<path d="M7840 4645 c-7 -8 -9 -15 -4 -15 4 0 -3 -11 -15 -24 -29 -30 -19 -56
11 -29 24 22 52 73 44 81 -3 3 -6 -1 -6 -9 0 -11 -2 -11 -9 -1 -6 10 -10 10
-21 -3z m10 -38 c0 -2 -10 -12 -22 -23 l-23 -19 19 23 c18 21 26 27 26 19z"/>
<path d="M8140 4620 c-8 -5 -10 -10 -5 -10 6 0 17 5 25 10 8 5 11 10 5 10 -5
0 -17 -5 -25 -10z"/>
<path d="M5154 4530 c0 -52 1 -74 3 -47 2 26 2 68 0 95 -2 26 -3 4 -3 -48z"/>
<path d="M5252 4595 c0 -16 2 -22 5 -12 2 9 2 23 0 30 -3 6 -5 -1 -5 -18z"/>
<path d="M8180 4610 c-9 -6 -10 -10 -3 -10 6 0 15 5 18 10 8 12 4 12 -15 0z"/>
<path d="M5271 4584 c0 -11 3 -14 6 -6 3 7 2 16 -1 19 -3 4 -6 -2 -5 -13z"/>
<path d="M1765 4570 c-11 -5 -63 -26 -115 -46 -118 -46 -179 -82 -159 -95 10
-6 10 -9 2 -9 -23 0 -28 -3 -41 -21 -12 -17 -48 -16 -37 1 3 5 1 11 -4 14 -5
4 -12 2 -15 -3 -4 -5 -1 -13 5 -16 7 -5 2 -16 -13 -34 l-23 -26 26 23 c18 16
29 20 34 12 4 -6 14 -10 23 -9 32 3 43 -1 36 -12 -4 -8 0 -8 15 0 11 7 21 14
21 17 0 3 -6 2 -12 -2 -9 -6 -9 -3 1 9 7 9 10 24 7 33 -5 14 -4 15 8 5 8 -7
12 -20 9 -29 -3 -10 -2 -13 4 -6 10 13 54 13 49 -1 -2 -5 -9 -9 -15 -8 -10 3
-13 -4 -10 -24 1 -5 6 -7 11 -5 6 2 24 -2 40 -7 18 -6 26 -7 23 -1 -4 6 2 14
13 18 29 11 66 59 101 132 28 59 33 62 15 13 -5 -15 -4 -14 9 2 9 11 17 28 17
38 0 9 5 17 10 17 6 0 10 7 10 15 0 17 -15 18 -45 5z m-152 -122 c6 -22 5 -22
-8 -4 -17 22 -20 40 -6 32 5 -3 11 -16 14 -28z"/>
<path d="M2220 4562 c-19 -9 -35 -26 -36 -37 -2 -17 -1 -18 9 -4 8 9 31 16 62
18 27 1 51 4 53 6 2 2 -9 10 -26 19 -26 14 -32 13 -62 -2z"/>
<path d="M5185 4530 c4 -19 19 -60 32 -90 43 -94 64 -163 73 -230 5 -45 6 -24
3 70 l-6 135 -55 75 c-49 68 -54 72 -47 40z"/>
<path d="M5271 4544 c0 -11 3 -14 6 -6 3 7 2 16 -1 19 -3 4 -6 -2 -5 -13z"/>
<path d="M5988 4519 c-7 -33 -54 -196 -85 -297 -14 -45 -23 -85 -21 -88 13
-12 36 11 66 65 18 32 40 65 50 72 16 13 16 13 2 -6 -14 -19 -14 -19 3 -6 9 8
15 16 12 19 -2 3 5 21 16 39 l22 35 -23 81 c-27 102 -35 118 -42 86z"/>
<path d="M1544 4521 c7 -11 -28 -21 -55 -16 -16 3 -19 0 -13 -17 4 -14 2 -18
-5 -14 -6 4 -11 2 -11 -3 0 -6 5 -11 10 -11 6 0 13 0 18 0 4 0 7 6 7 13 0 6 7
12 16 12 18 0 49 23 49 36 0 5 -5 9 -11 9 -5 0 -8 -4 -5 -9z"/>
<path d="M6560 4530 c-6 -20 -5 -52 1 -56 14 -8 19 14 10 38 -6 12 -10 21 -11
18z"/>
<path d="M3540 4500 c5 -10 34 -48 65 -85 30 -37 55 -75 55 -84 0 -14 -2 -14
-10 -1 -10 15 -12 10 -12 -25 0 -40 3 -55 17 -69 8 -8 15 -27 15 -42 0 -22 18
-46 78 -105 43 -43 77 -84 76 -93 -1 -9 1 -14 6 -11 4 3 13 -2 20 -10 11 -13
10 -14 -6 -8 -16 6 -17 5 -4 -9 8 -9 17 -16 20 -15 3 0 12 -3 20 -6 8 -3 51
-16 95 -27 44 -12 95 -30 113 -41 19 -11 38 -17 43 -13 5 3 8 1 7 -4 -2 -6 33
-34 77 -62 82 -54 224 -170 284 -233 23 -25 40 -34 55 -31 16 3 86 -38 241
-141 120 -80 226 -145 234 -145 14 0 14 -1 1 -10 -10 -6 -11 -10 -3 -10 9 0
11 -12 7 -43 -5 -32 -2 -46 10 -56 18 -15 21 -47 6 -56 -6 -3 -1 -27 12 -58
35 -87 36 -82 -33 -97 -46 -10 -57 -15 -43 -21 10 -4 29 -5 40 -2 19 4 23 -2
33 -59 17 -96 41 -292 36 -297 -3 -2 -5 1 -5 6 0 6 -8 10 -17 8 -27 -4 -34 4
-21 24 10 16 2 35 -48 119 l-59 100 -12 -51 c-7 -29 -9 -60 -6 -71 3 -10 1
-16 -3 -13 -5 3 -8 -34 -6 -83 l3 -88 -35 3 -35 2 -52 -131 c-28 -72 -62 -164
-76 -204 -13 -40 -53 -136 -89 -215 -35 -78 -57 -133 -49 -122 8 11 26 37 41
57 15 20 32 34 37 31 6 -3 7 -1 3 5 -3 6 31 66 78 134 91 134 176 284 176 312
0 10 17 -15 39 -55 21 -40 42 -74 48 -76 13 -5 96 169 97 205 0 18 6 34 12 36
10 4 121 -234 255 -546 64 -150 88 -187 50 -79 -16 47 -65 247 -107 441 -3 16
13 -1 43 -45 98 -141 246 -350 251 -355 3 -3 2 2 -1 10 -112 276 -149 373
-154 408 -4 31 -9 40 -15 30 -7 -9 -8 -7 -4 7 3 11 -1 56 -8 100 -8 44 -14 68
-15 53 -1 -14 -4 -34 -8 -44 -5 -13 -3 -15 7 -9 9 6 11 4 6 -4 -12 -18 -20 -4
-22 35 0 19 -7 40 -14 47 -10 10 -11 7 -5 -13 5 -19 4 -21 -4 -10 -6 8 -8 22
-6 31 3 9 0 29 -6 45 -7 16 -13 32 -14 37 -2 4 -4 10 -5 15 -1 4 -2 10 -2 13
1 3 -5 6 -13 6 -10 0 -11 -5 -4 -18 5 -10 9 -21 9 -26 -1 -4 -8 4 -16 20 -8
15 -12 33 -8 39 4 6 3 8 -3 5 -6 -4 -14 0 -17 9 -3 8 -11 12 -17 8 -8 -4 -7
-9 2 -15 12 -7 11 -11 -1 -24 -14 -13 -16 -13 -17 7 -1 12 3 28 8 34 12 15 -7
58 -21 49 -6 -3 -8 0 -5 7 6 18 -59 124 -74 120 -7 -1 -10 2 -6 8 3 5 -3 23
-14 39 l-20 28 54 51 c30 29 57 52 60 52 25 0 131 -303 120 -342 -4 -14 -3
-18 2 -11 12 16 33 -42 42 -111 3 -29 6 27 7 124 0 96 -3 165 -7 155 -7 -17
-8 -16 -8 7 -1 19 -14 38 -46 65 l-45 39 30 84 c16 47 30 95 30 108 0 14 9 27
25 34 14 6 25 15 25 20 0 5 4 7 9 4 10 -6 46 30 46 47 0 7 5 14 10 15 20 7 35
24 29 34 -3 5 3 12 13 14 21 6 56 57 46 68 -8 7 -43 -23 -43 -37 0 -5 8 -3 18
4 15 13 16 12 3 -3 -7 -10 -17 -16 -21 -13 -5 3 -33 -24 -63 -59 -30 -36 -58
-62 -63 -58 -4 4 -5 2 -1 -3 3 -6 -3 -11 -13 -11 -15 0 -17 3 -7 15 9 12 9 13
-1 7 -8 -5 -24 5 -46 28 -32 36 -33 36 -67 22 -61 -25 -114 -29 -133 -10 -16
15 -17 15 -10 -12 9 -39 2 -31 -40 51 -21 39 -34 59 -30 46 6 -22 3 -21 -37
13 -46 40 -197 124 -464 258 -88 44 -172 89 -187 100 -16 11 -33 16 -39 12 -7
-4 -9 -3 -5 4 3 6 -8 21 -26 33 -17 13 -28 17 -23 10 5 -9 3 -12 -6 -9 -8 3
-13 10 -12 16 1 5 -5 16 -15 24 -15 12 -16 11 -3 -4 7 -10 9 -18 4 -18 -18 0
-223 193 -300 283 l-42 48 -27 -18 c-22 -14 -28 -15 -32 -4 -2 7 -27 24 -56
38 -45 22 -47 23 -16 17 19 -3 40 -10 46 -15 6 -5 24 -3 43 4 28 10 32 16 27
39 -3 15 -1 30 4 33 14 9 2 25 -14 19 -7 -3 -19 3 -27 13 -13 17 -13 17 6 3
18 -14 19 -14 7 2 -7 9 -27 21 -44 27 -25 9 -29 8 -24 -4 8 -21 1 -19 -31 10
-15 14 -34 29 -40 35 -7 6 -13 15 -13 21 0 6 6 7 13 3 6 -3 -22 27 -63 67 -41
41 -75 77 -75 81 0 10 -14 22 -30 24 -11 2 -12 -2 -5 -16z m395 -530 c3 -5 -3
-10 -14 -10 -12 0 -21 5 -21 10 0 6 6 10 14 10 8 0 18 -4 21 -10z m618 -430
c4 -4 1 -7 -7 -7 -8 0 -32 18 -53 40 l-38 41 45 -34 c25 -18 49 -37 53 -40z
m907 -293 c0 -2 -10 -12 -22 -23 l-23 -19 19 23 c18 21 26 27 26 19z m-375
-27 c13 -6 15 -9 5 -9 -8 0 -22 4 -30 9 -18 12 -2 12 25 0z m-38 -77 c-3 -10
-5 -2 -5 17 0 19 2 27 5 18 2 -10 2 -26 0 -35z"/>
<path d="M3248 4463 c7 -3 16 -2 19 1 4 3 -2 6 -13 5 -11 0 -14 -3 -6 -6z"/>
<path d="M3640 4456 c0 -2 7 -6 15 -10 8 -3 15 -1 15 4 0 6 -7 10 -15 10 -8 0
-15 -2 -15 -4z"/>
<path d="M3683 4445 c0 -8 4 -12 9 -9 5 3 6 10 3 15 -9 13 -12 11 -12 -6z"/>
<path d="M1436 4428 c3 -5 10 -6 15 -3 13 9 11 12 -6 12 -8 0 -12 -4 -9 -9z"/>
<path d="M5156 4397 c3 -10 9 -15 12 -12 3 3 0 11 -7 18 -10 9 -11 8 -5 -6z"/>
<path d="M5030 4394 c0 -9 74 -43 83 -38 7 4 9 4 5 -1 -5 -5 1 -15 13 -23 31
-22 44 -1 19 31 -17 21 -27 25 -56 21 -19 -2 -33 0 -30 4 2 4 -4 8 -15 8 -10
0 -19 -1 -19 -2z"/>
<path d="M1699 4373 c-13 -16 -12 -17 4 -4 16 13 21 21 13 21 -2 0 -10 -8 -17
-17z"/>
<path d="M3610 4371 c0 -6 4 -13 10 -16 6 -3 7 1 4 9 -7 18 -14 21 -14 7z"/>
<path d="M7225 4330 c-3 -5 -15 -10 -26 -10 -11 0 -27 -7 -36 -15 -8 -8 -19
-13 -24 -10 -5 4 -9 2 -9 -4 0 -5 -3 -17 -7 -27 -4 -11 -3 -15 4 -11 6 4 13 2
15 -3 2 -6 69 -25 148 -41 137 -28 192 -31 265 -15 11 2 24 5 28 5 5 1 5 6 2
11 -4 7 -12 7 -25 0 -28 -15 -37 -12 -36 13 1 19 -13 28 -108 65 -114 45 -180
60 -191 42z m125 -80 c17 -6 9 -7 -25 -3 -27 3 -52 7 -54 9 -8 7 54 2 79 -6z"/>
<path d="M2390 4305 c13 -14 26 -25 28 -25 3 0 -5 11 -18 25 -13 14 -26 25
-28 25 -3 0 5 -11 18 -25z"/>
<path d="M5131 4301 c-8 -5 -17 -29 -21 -52 -9 -59 -54 -261 -96 -438 -19 -79
-33 -146 -30 -148 6 -6 43 141 76 302 31 149 49 220 75 303 8 23 13 42 12 42
-1 0 -8 -4 -16 -9z"/>
<path d="M3140 4280 c-12 -23 -11 -24 27 -9 22 8 24 12 13 19 -22 14 -28 12
-40 -10z"/>
<path d="M7047 4279 c4 -4 22 -11 38 -15 26 -6 28 -5 17 8 -7 9 -24 16 -38 16
-14 0 -22 -4 -17 -9z"/>
<path d="M2788 4263 c7 -3 16 -2 19 1 4 3 -2 6 -13 5 -11 0 -14 -3 -6 -6z"/>
<path d="M4360 4266 c0 -2 8 -10 18 -17 15 -13 16 -12 3 4 -13 16 -21 21 -21
13z"/>
<path d="M2640 4256 c0 -2 8 -10 18 -17 15 -13 16 -12 3 4 -13 16 -21 21 -21
13z"/>
<path d="M2756 4248 c5 -8 0 -9 -14 -6 -12 4 -22 2 -22 -4 0 -5 -5 -6 -11 -2
-15 9 -28 -13 -22 -37 6 -22 58 -27 66 -6 4 10 6 10 6 0 1 -19 51 -16 51 3 0
8 4 13 9 9 5 -3 13 0 17 6 5 8 3 9 -6 4 -10 -6 -12 -4 -6 11 4 10 4 15 0 11
-4 -4 -14 -1 -22 6 -9 6 -13 7 -10 2 4 -6 3 -17 -1 -24 -6 -9 -10 -5 -15 13
-3 14 -11 26 -17 26 -6 0 -7 -5 -3 -12z"/>
<path d="M6409 4242 c-13 -15 -12 -16 3 -4 13 10 17 10 21 0 4 -9 6 -9 6 -1 2
20 -16 24 -30 5z"/>
<path d="M2485 4241 c6 -11 4 -13 -11 -8 -18 7 -18 6 -2 -6 10 -8 16 -16 13
-19 -3 -2 2 -5 10 -5 12 0 12 3 2 15 -6 8 -10 17 -9 19 2 3 0 8 -4 11 -4 4 -3
1 1 -7z"/>
<path d="M3418 4233 c7 -3 16 -2 19 1 4 3 -2 6 -13 5 -11 0 -14 -3 -6 -6z"/>
<path d="M5970 4220 c-6 -11 -8 -20 -6 -20 3 0 10 9 16 20 6 11 8 20 6 20 -3
0 -10 -9 -16 -20z"/>
<path d="M7893 4227 c0 -7 9 -13 19 -13 10 0 18 1 18 3 0 1 -8 7 -18 12 -13 7
-19 6 -19 -2z"/>
<path d="M2529 4228 c-7 -27 -4 -39 9 -50 15 -11 15 -11 5 3 -9 11 -9 19 -2
26 8 8 8 13 0 17 -6 4 -11 6 -12 4z"/>
<path d="M2295 4211 c6 -11 4 -13 -7 -8 -9 3 -25 -1 -37 -9 -22 -16 -48 -55
-34 -53 26 4 35 -1 23 -15 -9 -12 -4 -19 30 -36 22 -11 46 -18 52 -14 7 4 8 3
4 -4 -8 -13 -6 -14 37 -16 15 -1 27 2 27 6 0 4 7 8 16 8 14 0 14 2 -1 16 -13
14 -14 19 -3 25 10 7 10 9 1 9 -18 0 -12 52 7 68 12 10 10 10 -12 1 -15 -7
-26 -15 -24 -18 2 -3 -6 -6 -17 -6 -12 -1 -33 -4 -47 -9 l-25 -7 23 18 23 19
-22 19 c-12 11 -19 14 -14 6z"/>
<path d="M2556 4203 c-3 -7 0 -15 6 -19 7 -5 8 -2 4 7 -4 8 -1 5 8 -5 13 -16
18 -17 32 -5 19 16 44 21 44 8 0 -5 -7 -9 -17 -9 -9 0 -14 -3 -10 -6 11 -11
47 7 47 24 0 14 -10 17 -55 17 -34 0 -57 -5 -59 -12z"/>
<path d="M3890 4205 c-10 -12 -10 -15 0 -15 8 0 10 -3 7 -7 -4 -3 0 -14 9 -24
12 -13 25 -16 52 -12 34 6 36 5 23 -10 -7 -9 -18 -14 -25 -10 -6 4 4 -12 23
-35 18 -24 36 -40 39 -37 3 3 19 -7 36 -22 l31 -28 -25 28 c-14 16 -24 32 -23
35 1 4 -6 6 -17 6 -11 -1 -17 3 -13 9 4 6 1 7 -8 2 -8 -5 -11 -4 -6 0 10 12
47 14 47 3 0 -5 5 -6 10 -3 6 4 10 3 9 -2 -4 -23 3 -33 24 -32 21 0 21 1 2 8
-16 7 -12 9 20 13 22 3 48 0 57 -6 13 -8 21 -7 30 3 8 9 9 12 1 7 -6 -3 -14
-2 -18 4 -3 5 -16 10 -27 10 -12 0 -59 21 -106 46 -46 25 -81 40 -77 35 13
-22 -8 -10 -35 19 -24 26 -29 28 -40 15z"/>
<path d="M4187 4189 c9 -16 36 -42 59 -58 27 -20 41 -38 40 -50 0 -11 2 -21 7
-21 27 -1 29 2 11 15 -22 17 -12 20 17 4 11 -5 17 -14 14 -19 -3 -5 0 -12 6
-16 8 -4 9 -3 5 4 -4 7 -5 12 -1 12 8 0 175 -91 175 -96 0 -3 -13 2 -29 11
-17 8 -38 12 -48 9 -13 -4 -14 -3 -5 3 9 7 5 13 -15 21 -23 10 -25 10 -13 0
16 -14 26 -49 13 -47 -20 3 -23 -3 -13 -23 10 -21 10 -22 -4 -5 -8 11 -12 26
-9 35 5 14 3 15 -8 5 -16 -16 -33 -17 -24 -2 4 6 1 9 -6 7 -17 -3 -69 30 -69
44 0 5 5 6 12 2 7 -4 8 -3 4 5 -4 6 -11 9 -15 6 -11 -6 -33 44 -25 57 4 7 2 8
-4 4 -7 -4 -12 -3 -12 1 0 5 -7 18 -15 29 -9 10 -3 -8 13 -41 16 -33 62 -133
102 -222 l73 -163 36 -1 c20 -1 64 0 99 0 42 1 61 -2 57 -9 -5 -7 22 -10 80
-8 l87 3 17 44 16 44 -123 126 c-67 69 -127 125 -132 124 -5 -2 -7 3 -4 10 2
7 -12 28 -33 47 -21 19 -27 23 -15 9 13 -15 20 -29 15 -31 -4 -3 -3 -4 3 -2 6
1 11 -4 11 -11 0 -10 -7 -10 -33 3 -18 8 -30 20 -27 25 3 6 1 7 -5 3 -16 -9
-113 44 -105 57 3 6 1 7 -5 3 -6 -4 -52 13 -101 38 l-91 44 17 -29z m383 -255
c0 -2 -9 0 -20 6 -11 6 -20 13 -20 16 0 2 9 0 20 -6 11 -6 20 -13 20 -16z
m122 -72 c7 -7 -12 1 -40 19 -29 17 -52 34 -52 36 0 7 81 -41 92 -55z m-112
-32 c-11 -22 -23 -40 -25 -40 -3 0 4 18 15 40 11 22 23 40 25 40 3 0 -4 -18
-15 -40z m181 -16 c9 -11 2 -9 -18 6 -18 13 -33 25 -33 27 0 8 38 -17 51 -33z"/>
<path d="M4400 4216 c0 -2 8 -10 18 -17 15 -13 16 -12 3 4 -13 16 -21 21 -21
13z"/>
<path d="M5255 4210 c-3 -5 -2 -21 1 -37 6 -24 8 -25 14 -8 4 11 4 25 -1 31
-5 6 -6 14 -2 17 3 4 4 7 0 7 -3 0 -8 -4 -12 -10z"/>
<path d="M7743 4207 c-3 -5 -1 -7 5 -3 6 3 13 2 17 -3 5 -9 -40 -5 -56 5 -8 5
-22 -13 -27 -36 -4 -20 -8 -32 -17 -54 -4 -10 -12 -32 -16 -50 -7 -28 -8 -27
-7 14 2 70 -6 74 -62 37 -33 -22 -45 -36 -39 -43 6 -7 6 -20 0 -35 -5 -13 -10
-18 -10 -11 -1 6 -9 12 -18 12 -15 0 -14 -2 3 -14 12 -9 23 -11 30 -5 8 7 11
4 10 -8 -1 -16 7 -18 63 -15 74 2 224 40 215 53 -3 5 3 6 12 2 13 -5 15 -3 9
7 -5 9 -4 11 4 6 13 -8 138 52 145 70 3 7 -2 20 -10 31 -9 10 -13 12 -9 3 4
-8 -2 -4 -13 10 -16 19 -30 24 -67 25 -31 1 -49 -3 -52 -12 -4 -10 -9 -11 -19
-2 -21 17 -83 29 -91 16z m-109 -75 c3 -5 -1 -9 -9 -9 -8 0 -12 4 -9 9 3 4 7
8 9 8 2 0 6 -4 9 -8z m-41 -27 c-3 -9 -8 -14 -10 -11 -3 3 -2 9 2 15 9 16 15
13 8 -4z"/>
<path d="M2858 4193 c7 -3 16 -2 19 1 4 3 -2 6 -13 5 -11 0 -14 -3 -6 -6z"/>
<path d="M4430 4177 c0 -2 15 -16 33 -33 l32 -29 -29 33 c-28 30 -36 37 -36
29z"/>
<path d="M7649 4163 c-13 -16 -12 -17 4 -4 16 13 21 21 13 21 -2 0 -10 -8 -17
-17z"/>
<path d="M3160 4139 c0 -5 -4 -7 -10 -4 -19 12 -10 -12 23 -56 35 -48 58 -61
49 -27 -4 15 -2 19 7 14 7 -5 3 10 -8 32 -22 43 -61 69 -61 41z"/>
<path d="M3840 4130 c-9 -6 -10 -10 -3 -10 6 0 15 5 18 10 8 12 4 12 -15 0z"/>
<path d="M5271 4124 c0 -11 3 -14 6 -6 3 7 2 16 -1 19 -3 4 -6 -2 -5 -13z"/>
<path d="M5990 4090 c-36 -55 -49 -66 -25 -20 27 53 15 46 -15 -9 -33 -60 -35
-65 -18 -55 7 4 8 3 4 -5 -4 -6 -11 -9 -15 -6 -9 5 -126 -185 -175 -282 -14
-29 -27 -70 -28 -92 -1 -26 -5 -38 -12 -34 -6 3 -8 3 -4 -2 4 -4 -9 -29 -28
-54 -20 -25 -5 -12 33 29 39 41 102 102 141 134 39 33 69 63 66 68 -3 4 1 5 9
2 8 -3 20 3 28 13 13 17 13 17 -6 3 -20 -15 -20 -15 -1 8 11 12 25 21 32 18 7
-3 14 5 17 16 4 14 11 19 22 14 10 -4 14 -2 9 5 -4 7 -1 10 7 7 16 -6 111 41
104 52 -3 4 5 10 16 13 15 4 20 11 16 21 -4 10 1 21 12 28 11 7 16 19 13 30
-2 10 1 18 8 18 7 0 10 7 6 17 -4 10 2 25 15 40 28 29 17 30 -24 2 l-32 -21
27 24 c15 12 38 31 53 41 34 24 27 30 -16 15 -45 -15 -84 -45 -67 -51 8 -2 2
-10 -15 -17 -15 -8 -44 -36 -63 -63 -19 -27 -38 -46 -41 -43 -3 3 0 13 8 22
13 16 12 16 -7 6 -12 -6 -24 -8 -28 -4 -4 3 -12 0 -17 -8 -16 -23 0 28 22 72
20 40 25 83 10 92 -5 3 -23 -17 -41 -44z m52 -182 c-7 -7 -12 -8 -12 -2 0 14
12 26 19 19 2 -3 -1 -11 -7 -17z"/>
<path d="M5281 4084 c0 -11 3 -14 6 -6 3 7 2 16 -1 19 -3 4 -6 -2 -5 -13z"/>
<path d="M5303 4050 c0 -30 2 -43 4 -27 2 15 2 39 0 55 -2 15 -4 2 -4 -28z"/>
<path d="M8223 4058 c-34 -23 -60 -44 -58 -47 3 -2 -3 -10 -12 -16 -16 -12
-13 -18 30 -69 56 -65 102 -100 122 -93 7 3 19 -1 25 -9 7 -8 24 -14 39 -14
33 0 226 44 266 61 30 12 30 12 -35 25 -36 7 -130 18 -210 24 -80 7 -156 18
-170 25 -23 13 -21 13 28 9 35 -2 51 0 47 7 -4 6 3 8 22 4 26 -6 25 -5 -6 10
-18 8 -45 15 -60 16 -14 0 -35 4 -46 8 -16 7 -12 10 24 16 26 4 39 10 31 15
-12 7 23 24 47 21 6 -1 15 4 19 10 4 8 3 9 -5 5 -14 -9 -43 12 -35 25 9 15 0
11 -63 -33z m57 18 c0 -2 -7 -7 -16 -10 -8 -3 -12 -2 -9 4 6 10 25 14 25 6z
m27 -188 c-3 -7 -5 -2 -5 12 0 14 2 19 5 13 2 -7 2 -19 0 -25z m187 -33 c-4
-8 -8 -15 -10 -15 -2 0 -4 7 -4 15 0 8 4 15 10 15 5 0 7 -7 4 -15z"/>
<path d="M5800 4041 c-26 -23 -38 -39 -28 -37 20 2 56 33 69 58 13 25 10 23
-41 -21z"/>
<path d="M3468 4051 c-53 -10 -94 -23 -105 -33 -16 -17 -16 -18 15 -18 33 0
44 -16 17 -26 -8 -3 -26 3 -40 14 -21 17 -23 21 -9 26 9 4 14 9 11 13 -11 10
-36 -17 -30 -32 3 -9 -4 -16 -19 -20 -14 -4 -25 -13 -25 -21 0 -10 4 -11 12
-4 9 8 14 6 19 -5 14 -38 242 17 272 66 5 8 3 9 -6 4 -9 -6 -11 -4 -6 4 5 7
14 10 22 7 8 -3 13 0 11 7 -1 7 7 11 18 9 16 -2 17 -1 5 7 -9 6 -19 6 -24 1
-10 -10 -38 -2 -31 9 6 10 -7 9 -107 -8z"/>
<path d="M4117 4049 c7 -7 15 -10 18 -7 3 3 -2 9 -12 12 -14 6 -15 5 -6 -5z"/>
<path d="M3281 4034 c0 -11 3 -14 6 -6 3 7 2 16 -1 19 -3 4 -6 -2 -5 -13z"/>
<path d="M4020 4037 c0 -2 15 -16 33 -33 l32 -29 -29 33 c-28 30 -36 37 -36
29z"/>
<path d="M6293 4031 c1 -4 -8 -17 -20 -31 -21 -22 -29 -40 -18 -40 9 0 55 24
56 29 5 37 3 48 -7 48 -7 0 -12 -3 -11 -6z"/>
<path d="M6408 4015 c-30 -26 -135 -68 -153 -62 -6 3 -26 -8 -45 -23 l-35 -28
50 9 c92 17 200 51 211 65 10 12 13 12 17 2 3 -7 5 3 6 22 0 28 -2 31 -8 15
-8 -19 -9 -19 -12 2 l-4 22 -27 -24z m17 -12 c-2 -10 -4 -19 -4 -21 -1 -2 -6
0 -11 3 -8 5 -7 11 1 21 15 18 18 18 14 -3z"/>
<path d="M8280 4021 c0 -6 -12 -12 -27 -12 -24 -2 -24 -2 -6 -6 27 -5 61 11
44 21 -6 4 -11 2 -11 -3z"/>
<path d="M2000 3983 c-25 -8 -52 -17 -60 -20 -8 -3 -27 -5 -42 -4 -14 1 -29
-2 -32 -8 -4 -6 -13 -8 -21 -5 -8 3 -29 -1 -46 -10 -18 -9 -42 -16 -54 -16
-30 0 -48 -20 -33 -37 8 -11 7 -12 -6 -7 -9 3 -16 10 -16 14 0 5 -8 11 -17 13
-10 2 -8 3 4 2 12 -1 20 2 17 6 -3 5 0 9 7 9 7 0 10 2 8 4 -3 3 -24 0 -48 -6
-31 -8 -39 -13 -29 -20 9 -7 8 -8 -6 -4 -10 4 -35 1 -55 -5 l-36 -12 85 -24
c47 -13 115 -26 152 -29 60 -6 68 -5 75 12 12 33 37 44 46 20 4 -9 -1 -13 -11
-11 -9 1 -11 0 -4 -2 7 -3 9 -9 6 -15 -3 -5 9 -2 27 7 44 22 110 86 102 98 -3
6 -2 7 4 4 12 -8 66 46 56 56 -9 9 -21 8 -73 -10z m60 -8 c0 -2 -6 -8 -13 -14
-10 -8 -14 -7 -14 2 0 8 6 14 14 14 7 0 13 -1 13 -2z m-55 -25 c-3 -5 -12 -10
-18 -10 -7 0 -6 4 3 10 19 12 23 12 15 0z m-35 -24 c0 -2 -12 -11 -27 -20
l-28 -17 24 20 c23 21 31 25 31 17z"/>
<path d="M5695 3957 c-19 -16 -32 -33 -29 -38 3 -6 0 -9 -7 -7 -15 3 -76 -40
-118 -83 -14 -14 -34 -47 -43 -73 l-18 -48 58 50 c31 27 85 79 119 115 34 35
64 63 66 61 2 -2 15 9 30 24 l27 28 -25 0 c-14 0 -41 -13 -60 -29z m65 18 c0
-1 -9 -10 -19 -19 -19 -17 -19 -17 -16 1 2 10 4 18 4 19 2 2 31 1 31 -1z m-57
-27 c-4 -7 -8 -16 -9 -20 -1 -5 -2 -11 -3 -14 0 -3 -6 -2 -12 1 -7 5 -4 14 7
26 19 22 29 25 17 7z m-53 -42 c0 -2 -8 -10 -17 -17 -16 -13 -17 -12 -4 4 13
16 21 21 21 13z"/>
<path d="M1692 3966 c-18 -7 -29 -15 -26 -19 4 -4 -1 -7 -11 -7 -10 0 -16 -2
-13 -5 3 -3 36 2 74 11 51 13 63 19 48 25 -24 10 -32 9 -72 -5z"/>
<path d="M6790 3976 c0 -2 9 -6 20 -9 11 -3 18 -1 14 4 -5 9 -34 13 -34 5z"/>
<path d="M6856 3958 c3 -5 10 -6 15 -3 13 9 11 12 -6 12 -8 0 -12 -4 -9 -9z"/>
<path d="M2956 3948 c3 -4 0 -8 -6 -8 -7 0 -9 -9 -5 -22 7 -23 7 -23 -9 -3 -9
12 -15 15 -16 7 0 -7 -7 -12 -16 -10 -10 2 -19 -3 -21 -9 -4 -10 28 -13 139
-12 88 1 128 4 103 8 -22 4 -58 16 -80 28 -22 11 -46 18 -54 15 -8 -2 -11 0
-8 5 3 5 -3 9 -13 9 -10 0 -16 -4 -14 -8z"/>
<path d="M5151 3944 c0 -11 3 -14 6 -6 3 7 2 16 -1 19 -3 4 -6 -2 -5 -13z"/>
<path d="M6895 3950 c-16 -7 -17 -9 -3 -9 9 -1 20 4 23 9 7 11 7 11 -20 0z"/>
<path d="M7173 3939 c-10 -10 -10 -16 0 -28 10 -12 9 -14 -5 -8 -10 3 -18 2
-18 -3 0 -13 187 -13 195 -1 6 10 -26 32 -55 38 -56 12 -106 13 -117 2z"/>
<path d="M6980 3925 c0 -16 16 -20 24 -6 3 5 -1 11 -9 15 -9 3 -15 0 -15 -9z"/>
<path d="M2325 3904 c-49 -14 -108 -36 -131 -49 -86 -50 -127 -101 -83 -101
14 0 15 4 7 19 -7 14 -7 17 1 12 7 -4 18 -2 25 4 9 8 13 7 13 -4 0 -7 -5 -13
-11 -12 -5 1 -10 -3 -11 -10 0 -7 -6 -18 -14 -25 -12 -11 -13 -11 -6 1 6 10 4
12 -4 7 -9 -6 -9 -11 1 -23 17 -21 18 -40 2 -40 -9 0 -11 4 -4 12 7 8 5 12 -4
12 -8 0 -13 -6 -12 -14 2 -15 26 -41 26 -29 0 5 6 3 13 -3 11 -8 28 -6 72 9
32 11 60 18 62 16 3 -2 -13 -10 -34 -16 -45 -15 -364 -159 -376 -170 -9 -8
243 -33 348 -34 39 -1 72 -4 75 -8 6 -8 172 50 237 83 50 25 108 94 105 126
-1 13 3 23 9 23 5 0 7 -5 3 -12 -4 -7 -3 -8 5 -4 8 5 3 16 -16 37 -34 36 -38
37 -17 4 9 -14 12 -25 8 -25 -12 0 -35 51 -28 62 3 5 0 7 -6 6 -14 -4 -37 28
-28 38 4 3 12 3 18 -1 9 -6 9 -10 -1 -16 -25 -16 8 -10 61 11 28 11 59 20 70
20 26 0 47 38 25 46 -8 3 -22 3 -31 0 -10 -4 -13 -2 -8 6 5 7 1 9 -12 6 -11
-3 -26 1 -33 9 -8 9 -23 12 -44 8 -21 -4 -27 -3 -19 3 10 6 -6 14 -52 26 -82
20 -92 20 -201 -10z m116 2 c-12 -14 -61 -28 -61 -17 0 4 15 12 33 18 17 5 34
11 36 12 2 0 -2 -5 -8 -13z m39 -4 c0 -13 -12 -22 -22 -16 -10 6 -1 24 13 24
5 0 9 -4 9 -8z m37 2 c-3 -3 -12 -4 -19 -1 -8 3 -5 6 6 6 11 1 17 -2 13 -5z
m40 -10 c-3 -3 -12 -4 -19 -1 -8 3 -5 6 6 6 11 1 17 -2 13 -5z m-360 -59 c0
-8 -4 -12 -9 -9 -5 3 -6 10 -3 15 9 13 12 11 12 -6z m74 -78 c-8 -8 -14 -8
-23 2 -11 10 -9 11 5 5 10 -3 17 -3 16 2 -1 5 0 16 1 24 2 11 4 10 7 -4 3 -10
0 -23 -6 -29z m-173 -272 c-3 -3 -9 2 -12 12 -6 14 -5 15 5 6 7 -7 10 -15 7
-18z"/>
<path d="M7808 3908 c6 -7 20 -51 31 -98 12 -47 25 -94 30 -105 4 -11 5 -32 1
-46 -7 -26 -5 -27 100 -63 68 -23 125 -36 152 -35 24 1 61 -5 83 -14 80 -30
146 -47 139 -34 -32 54 -128 168 -202 239 -95 92 -155 129 -249 153 -72 19
-99 20 -85 3z"/>
<path d="M5202 3875 c0 -16 2 -22 5 -12 2 9 2 23 0 30 -3 6 -5 -1 -5 -18z"/>
<path d="M3188 3883 c7 -3 16 -2 19 1 4 3 -2 6 -13 5 -11 0 -14 -3 -6 -6z"/>
<path d="M3228 3883 c6 -2 18 -2 25 0 6 3 1 5 -13 5 -14 0 -19 -2 -12 -5z"/>
<path d="M5322 3848 c-2 -36 -22 -56 -22 -22 0 8 -4 13 -9 10 -5 -4 -12 0 -15
6 -3 7 -3 2 0 -11 4 -14 2 -21 -4 -17 -9 5 -36 -52 -84 -179 -15 -40 -18 -43
-13 -15 13 71 12 170 -2 170 -7 0 -14 -8 -14 -17 -1 -10 -4 -4 -8 12 -8 35
-23 -250 -17 -308 6 -48 12 -57 39 -57 18 0 19 -2 7 -10 -9 -6 -10 -10 -3 -10
19 0 24 17 8 30 -8 7 -13 16 -10 20 3 5 -5 16 -17 24 -12 9 -18 16 -12 16 13
0 42 -31 43 -45 2 -19 76 -8 76 11 0 15 16 35 24 30 4 -3 18 4 30 15 12 11 27
17 34 13 6 -4 9 -4 5 1 -4 4 -2 15 4 24 10 13 10 14 -2 4 -27 -24 -33 -13 -9
14 13 16 -7 -1 -46 -37 -38 -36 -73 -69 -77 -75 -19 -25 -3 14 62 156 39 85
66 155 60 157 -5 2 -10 13 -10 25 -1 15 -5 10 -15 -16 -7 -21 -17 -42 -21 -45
-4 -4 -4 2 1 13 4 11 7 29 7 40 -1 10 4 25 9 31 6 7 9 28 6 46 l-4 33 -1 -37z
m8 -321 c0 -2 -10 -12 -22 -23 l-23 -19 19 23 c18 21 26 27 26 19z"/>
<path d="M2773 3853 c9 -2 23 -2 30 0 6 3 -1 5 -18 5 -16 0 -22 -2 -12 -5z"/>
<path d="M5495 3830 c-4 -6 -10 -8 -15 -5 -4 3 -19 -8 -33 -24 -14 -17 -29
-27 -33 -23 -5 4 -2 -1 5 -10 7 -10 17 -15 22 -12 5 3 6 -2 3 -10 -3 -9 -2
-16 3 -16 10 0 56 76 59 98 3 15 -3 16 -11 2z m-15 -13 c0 -2 -10 -12 -22 -23
l-23 -19 19 23 c18 21 26 27 26 19z"/>
<path d="M1850 3820 c0 -5 5 -10 11 -10 5 0 7 5 4 10 -3 6 -8 10 -11 10 -2 0
-4 -4 -4 -10z"/>
<path d="M5208 3760 c-3 -19 -9 -44 -12 -55 -4 -11 1 -5 9 14 9 18 15 43 13
55 -3 15 -5 11 -10 -14z"/>
<path d="M2000 3695 c-41 -41 -72 -75 -69 -75 2 0 38 34 79 75 41 41 72 75 69
75 -2 0 -38 -34 -79 -75z"/>
<path d="M2675 3759 c-4 -6 -5 -12 -2 -15 2 -3 7 2 10 11 7 17 1 20 -8 4z"/>
<path d="M3865 3760 c3 -5 8 -10 11 -10 2 0 4 5 4 10 0 6 -5 10 -11 10 -5 0
-7 -4 -4 -10z"/>
<path d="M4830 3766 c0 -2 8 -10 18 -17 15 -13 16 -12 3 4 -13 16 -21 21 -21
13z"/>
<path d="M3826 3738 c3 -4 0 -8 -6 -8 -7 0 -10 -6 -7 -13 4 -10 -3 -12 -24 -9
-24 4 -29 1 -29 -16 0 -35 23 -121 31 -117 10 7 109 152 109 161 0 3 -7 4 -15
1 -8 -4 -17 -2 -20 3 -3 5 -14 8 -25 7 -10 -1 -16 -5 -14 -9z"/>
<path d="M2799 3713 l-24 -28 28 24 c25 23 32 31 24 31 -2 0 -14 -12 -28 -27z"/>
<path d="M6551 3684 c0 -11 3 -14 6 -6 3 7 2 16 -1 19 -3 4 -6 -2 -5 -13z"/>
<path d="M3700 3683 c-24 -4 -44 -10 -105 -34 -16 -7 -32 -13 -35 -14 -9 -2
-102 -60 -125 -78 -22 -16 -53 -112 -40 -125 2 -3 37 9 77 25 40 17 100 33
133 36 37 3 51 2 35 -3 -14 -4 -37 -8 -52 -9 -16 -1 -28 -4 -28 -8 0 -5 -9
-62 -20 -128 -30 -182 -33 -177 53 -107 79 66 196 182 183 182 -4 0 2 9 15 21
13 11 18 18 12 14 -9 -4 -11 -1 -7 9 3 9 11 13 17 9 6 -4 8 0 4 10 -3 10 -2
17 3 17 6 0 10 14 10 31 0 16 3 28 8 26 4 -3 7 5 7 18 0 12 -6 22 -12 21 -23
-4 -39 -37 -36 -73 2 -36 -6 -40 -12 -6 -2 10 -4 19 -4 20 -1 1 -22 -7 -47
-18 -25 -12 -48 -19 -50 -16 -5 5 87 42 98 39 4 -1 0 10 -7 25 -8 14 -17 43
-20 64 -8 44 -20 56 -55 52z m-7 -50 c-3 -21 -12 -49 -20 -63 -9 -15 -12 -17
-8 -5 7 20 9 26 20 78 8 40 15 33 8 -10z m-163 -48 c7 -9 8 -15 2 -15 -5 0
-12 7 -16 15 -3 8 -4 15 -2 15 2 0 9 -7 16 -15z m-10 -30 c13 -14 21 -25 18
-25 -2 0 -15 11 -28 25 -13 14 -21 25 -18 25 2 0 15 -11 28 -25z m130 -9 c0
-2 -7 -7 -16 -10 -8 -3 -12 -2 -9 4 6 10 25 14 25 6z"/>
<path d="M5454 3658 l-19 -23 23 19 c12 11 22 21 22 23 0 8 -8 2 -26 -19z"/>
<path d="M6351 3648 c5 -10 11 -18 12 -18 2 0 3 8 3 18 0 10 -6 19 -13 19 -8
0 -9 -6 -2 -19z"/>
<path d="M2110 3640 c-8 -5 -10 -10 -5 -10 6 0 17 5 25 10 8 5 11 10 5 10 -5
0 -17 -5 -25 -10z"/>
<path d="M4972 3625 c0 -16 2 -22 5 -12 2 9 2 23 0 30 -3 6 -5 -1 -5 -18z"/>
<path d="M6441 3634 c0 -11 3 -14 6 -6 3 7 2 16 -1 19 -3 4 -6 -2 -5 -13z"/>
<path d="M5665 3600 c-37 -38 -283 -192 -296 -184 -5 3 -8 0 -7 -8 2 -7 -5
-12 -14 -12 -10 1 -15 -2 -13 -7 6 -9 -54 -45 -68 -41 -5 2 8 -19 29 -46 43
-54 56 -58 81 -29 10 11 12 17 6 13 -22 -12 -14 10 9 30 22 19 23 19 8 -1 -14
-18 -14 -19 2 -7 9 8 15 19 12 26 -3 7 2 19 11 26 8 7 15 9 15 5 0 -4 6 -2 14
5 8 6 13 17 10 24 -3 7 21 35 53 61 67 56 191 175 182 175 -3 0 -18 -13 -34
-30z"/>
<path d="M2754 3608 c-3 -4 -2 -12 1 -18 3 -5 1 -10 -6 -10 -7 0 -9 -3 -6 -7
7 -6 47 25 47 37 0 10 -30 8 -36 -2z"/>
<path d="M6375 3609 c4 -5 11 -6 17 -3 7 5 9 2 6 -7 -4 -10 1 -15 13 -16 20
-2 26 12 9 22 -18 11 -51 14 -45 4z"/>
<path d="M1909 3593 c-13 -16 -12 -17 4 -4 9 7 17 15 17 17 0 8 -8 3 -21 -13z"/>
<path d="M2808 3603 c7 -3 16 -2 19 1 4 3 -2 6 -13 5 -11 0 -14 -3 -6 -6z"/>
<path d="M6449 3582 c-1 -4 -1 -11 0 -15 1 -5 -9 -6 -21 -2 -22 5 -21 5 2 -9
14 -8 28 -12 32 -10 4 3 16 0 25 -6 17 -11 17 -11 0 -6 -12 4 -16 2 -11 -6 5
-8 2 -9 -9 -5 -24 9 -21 0 4 -14 15 -8 19 -8 15 0 -9 14 -3 14 29 -1 16 -7 21
-14 14 -18 -7 -5 -5 -9 6 -13 10 -4 14 -3 9 4 -4 7 0 9 14 5 18 -6 21 -3 18
21 -1 15 -8 27 -14 26 -7 -2 -12 2 -12 7 0 6 -7 10 -15 10 -9 0 -15 10 -16 23
0 12 -3 16 -6 9 -2 -6 -9 -10 -14 -6 -15 9 -49 13 -50 6z m113 -67 c2 3 5 -1
5 -8 0 -11 -6 -11 -30 1 -22 11 -26 17 -16 23 9 6 18 3 25 -6 6 -8 13 -13 16
-10z"/>
<path d="M6530 3586 c0 -3 9 -10 20 -16 11 -6 20 -8 20 -6 0 3 -9 10 -20 16
-11 6 -20 8 -20 6z"/>
<path d="M4588 3450 c22 -30 47 -68 55 -85 9 -16 60 -74 115 -129 l100 -99 52
30 51 30 -40 26 c-22 15 -93 55 -157 89 -74 40 -120 71 -129 88 -8 14 -30 43
-50 65 l-36 40 39 -55z"/>
<path d="M6588 3488 c-3 -7 -1 -24 3 -38 6 -22 7 -20 8 13 1 38 -3 47 -11 25z"/>
<path d="M5619 3463 c-13 -16 -12 -17 4 -4 16 13 21 21 13 21 -2 0 -10 -8 -17
-17z"/>
<path d="M6463 3462 c0 -22 17 -43 28 -36 5 3 10 -3 11 -13 0 -10 2 -23 2 -30
2 -22 26 -37 59 -38 31 -1 33 0 28 29 l-5 31 -6 -30 c-5 -26 -7 -23 -14 25 -5
37 -10 50 -16 40 -5 -8 -6 -18 -4 -22 3 -4 0 -8 -6 -8 -7 0 -9 7 -6 16 8 20
-2 36 -17 27 -21 -13 -48 -11 -43 3 3 7 2 16 -3 18 -4 3 -8 -3 -8 -12z m59
-34 c-7 -7 -12 -8 -12 -2 0 14 12 26 19 19 2 -3 -1 -11 -7 -17z m34 -46 c1 -7
0 -8 -3 -2 -9 18 -22 10 -18 -11 4 -17 2 -19 -11 -9 -11 10 -12 16 -3 27 13
15 32 13 35 -5z"/>
<path d="M6569 3438 c4 -28 6 -29 9 -9 2 13 0 27 -5 32 -6 6 -7 -3 -4 -23z"/>
<path d="M2809 3443 c-13 -16 -12 -17 4 -4 16 13 21 21 13 21 -2 0 -10 -8 -17
-17z"/>
<path d="M6624 3452 c-18 -11 -29 -93 -14 -102 9 -6 7 -10 -8 -14 -11 -4 -23
-15 -25 -24 -4 -15 -5 -15 -6 1 -1 10 -6 15 -12 11 -7 -4 5 -23 31 -49 23 -24
42 -46 41 -49 -1 -3 1 -5 3 -3 3 1 16 -9 30 -22 14 -14 28 -23 30 -20 4 4 -16
147 -28 202 -3 15 -8 38 -11 52 -6 26 -12 30 -31 17z"/>
<path d="M5585 3420 c-10 -11 -16 -22 -13 -25 3 -3 13 6 22 20 20 30 16 32 -9
5z"/>
<path d="M5020 3415 c0 -5 5 -17 10 -25 5 -8 10 -10 10 -5 0 6 -5 17 -10 25
-5 8 -10 11 -10 5z"/>
<path d="M6460 3416 c0 -2 8 -10 18 -17 15 -13 16 -12 3 4 -13 16 -21 21 -21
13z"/>
<path d="M2764 3388 l-19 -23 23 19 c12 11 22 21 22 23 0 8 -8 2 -26 -19z"/>
<path d="M2724 3338 l-19 -23 23 19 c21 18 27 26 19 26 -2 0 -12 -10 -23 -22z"/>
<path d="M4686 3288 c3 -10 11 -18 16 -18 6 0 8 -6 5 -14 -3 -8 1 -17 9 -20 8
-3 14 -11 14 -18 0 -9 -3 -8 -10 2 -5 8 -10 11 -10 5 0 -5 5 -17 10 -25 7 -11
10 -11 10 -2 0 7 5 10 10 7 8 -5 8 -11 1 -19 -7 -8 -6 -26 3 -56 8 -29 15 -39
20 -30 3 8 4 5 2 -8 -6 -29 16 -202 25 -202 8 0 19 88 19 153 0 38 5 53 22 67
l23 18 -88 88 c-48 49 -85 81 -81 72z m82 -94 c-4 -3 -12 5 -18 18 -12 22 -12
22 6 6 10 -10 15 -20 12 -24z m17 -46 c0 -6 6 -13 14 -16 8 -3 11 0 8 5 -3 5
0 10 8 10 25 0 24 -25 -1 -42 -24 -16 -26 -15 -39 1 -7 10 -10 25 -7 33 4 10
1 12 -9 6 -11 -7 -12 -6 -2 7 7 8 11 17 9 20 -1 3 2 1 8 -4 6 -5 11 -14 11
-20z"/>
<path d="M5419 3263 c-13 -16 -12 -17 4 -4 16 13 21 21 13 21 -2 0 -10 -8 -17
-17z"/>
<path d="M4985 3230 c-3 -6 1 -7 9 -4 18 7 21 14 7 14 -6 0 -13 -4 -16 -10z"/>
<path d="M4843 2905 c-18 -40 -33 -80 -33 -90 0 -9 -4 -14 -9 -11 -5 4 -9 -57
-9 -142 l0 -147 23 100 c13 55 40 147 59 205 34 101 35 105 18 131 l-17 27
-32 -73z"/>
<path d="M5056 2562 c-3 -5 1 -9 9 -9 8 0 12 4 9 9 -3 4 -7 8 -9 8 -2 0 -6 -4
-9 -8z"/>
<path d="M4959 1926 c-80 -74 -149 -142 -153 -151 -3 -9 -3 -15 1 -13 5 2 42
20 83 41 l75 37 19 -37 c10 -21 23 -41 28 -44 6 -4 -18 -23 -51 -43 -34 -21
-61 -39 -61 -42 0 -6 109 55 139 78 13 10 26 16 29 13 10 -10 -17 -26 -233
-140 -49 -26 -89 -51 -88 -55 1 -4 -6 -6 -16 -3 -13 3 -23 -2 -30 -15 -12 -23
1 -38 21 -26 6 4 8 3 5 -4 -4 -6 38 -36 100 -73 60 -34 118 -69 130 -76 21
-14 22 -13 32 29 34 139 86 331 103 379 15 45 18 79 16 168 l-3 111 -146 -134z"/>
<path d="M5120 1787 c0 -28 24 -107 32 -107 4 0 4 -7 1 -17 -4 -11 -3 -14 6
-9 9 6 10 0 6 -21 -5 -22 -4 -25 5 -13 9 12 10 7 5 -20 -5 -28 -4 -32 5 -20
10 13 11 12 6 -4 -4 -10 6 -67 20 -127 l27 -109 36 -10 c75 -21 278 -70 324
-79 l49 -9 -5 43 -4 43 48 -31 c27 -18 49 -39 49 -47 0 -13 1 -13 10 0 6 10 6
16 0 18 -6 2 -10 45 -10 96 0 115 11 308 18 302 2 -3 4 -49 4 -103 -2 -128 7
-175 33 -179 11 -2 67 -13 125 -24 191 -37 290 -53 294 -49 2 2 0 30 -3 61
l-7 57 36 -20 c20 -12 50 -33 66 -48 16 -15 49 -40 72 -56 32 -21 40 -31 30
-37 -9 -7 -6 -8 9 -5 13 3 26 1 29 -4 8 -13 41 -11 50 3 4 7 3 8 -5 4 -13 -8
-74 31 -66 44 3 4 -3 7 -13 6 -9 0 -16 4 -15 11 2 7 -3 10 -11 7 -8 -3 -17 0
-22 7 -5 8 -3 10 6 4 8 -5 11 -4 6 3 -4 6 -13 9 -20 6 -8 -3 -17 0 -22 7 -5 8
-3 10 7 5 8 -4 3 2 -11 13 -14 11 -28 21 -32 21 -17 0 -24 4 -35 19 -7 9 -13
12 -13 7 0 -6 -7 -1 -16 10 -8 10 -13 12 -9 4 6 -13 5 -13 -7 0 -15 17 -18 18
-118 37 -41 7 -93 11 -115 8 -26 -4 -35 -3 -27 3 10 7 5 11 -19 16 -17 3 -38
14 -45 24 -7 9 -18 17 -25 17 -7 0 -13 9 -15 19 -5 33 -88 106 -148 131 -39
16 -56 19 -56 10 0 -20 -76 -131 -95 -139 -12 -4 -26 1 -39 13 -12 11 -95 59
-186 107 -91 48 -173 94 -182 102 -16 14 -18 13 -18 -1z m670 -162 c13 -14 21
-25 18 -25 -2 0 -15 11 -28 25 -13 14 -21 25 -18 25 2 0 15 -11 28 -25z"/>
<path d="M4682 1724 c-39 -18 -72 -36 -72 -39 0 -4 8 -4 18 -1 15 5 15 4 2 -6
-13 -11 -11 -16 13 -40 15 -15 27 -23 27 -17 0 5 4 9 9 9 5 0 7 -10 4 -22 -2
-13 4 -5 15 17 11 22 33 54 49 71 23 24 27 35 19 46 -10 13 -21 10 -84 -18z"/>
<path d="M4523 1731 c-12 -10 -19 -22 -15 -26 4 -5 -1 -5 -11 -2 -11 4 -16 3
-12 -3 3 -6 -4 -14 -17 -19 -13 -5 -39 -26 -58 -48 l-35 -38 37 34 c29 27 40
32 51 23 18 -16 116 35 114 59 -1 13 -5 14 -19 5 -10 -6 -18 -15 -18 -21 0 -5
-5 -3 -10 5 -6 10 -4 20 7 32 21 23 14 22 -14 -1z"/>
<path d="M4839 1643 c-13 -17 -13 -17 6 -3 11 8 22 16 24 17 2 2 0 3 -6 3 -6
0 -17 -8 -24 -17z"/>
<path d="M4470 1462 c1 -89 -1 -167 -5 -174 -4 -7 16 11 45 39 30 31 48 58 44
64 -4 7 -3 9 3 6 6 -4 23 12 39 35 45 66 46 68 32 63 -7 -3 -46 25 -86 61
l-73 66 1 -160z m60 -105 c0 -2 -12 -14 -27 -28 l-28 -24 24 28 c23 25 31 32
31 24z"/>
<path d="M4339 1553 c-13 -16 -12 -17 4 -4 16 13 21 21 13 21 -2 0 -10 -8 -17
-17z"/>
<path d="M3915 1398 c-44 -27 -92 -63 -107 -80 -17 -17 -33 -26 -40 -22 -10 5
-10 4 -2 -5 20 -21 174 17 174 43 0 6 18 29 40 51 33 33 38 44 28 53 -10 8
-32 -1 -93 -40z"/>
<path d="M4030 1342 c-81 -35 -283 -143 -277 -148 2 -3 17 2 33 11 16 8 33 15
37 15 5 0 32 11 60 24 29 13 96 41 150 62 89 35 114 55 76 61 -8 2 -43 -10
-79 -25z"/>
<path d="M4740 1280 l-35 -5 48 -11 c46 -11 60 -6 35 13 -7 5 -29 7 -48 3z"/>
<path d="M6498 1229 c17 -5 32 -14 32 -19 0 -6 26 -10 58 -9 47 0 53 2 33 10
-13 5 -32 7 -41 4 -19 -6 -52 4 -46 14 2 3 -12 7 -32 8 l-37 1 33 -9z"/>
<path d="M6083 1213 c15 -2 37 -2 50 0 12 2 0 4 -28 4 -27 0 -38 -2 -22 -4z"/>
<path d="M6318 1203 c23 -2 59 -2 80 0 20 2 1 4 -43 4 -44 0 -61 -2 -37 -4z"/>
<path d="M3813 1193 c15 -2 37 -2 50 0 12 2 0 4 -28 4 -27 0 -38 -2 -22 -4z"/>
</g>
</svg>
